<?xml version="1.0" encoding="utf-8"?>
<!-- Generator: Adobe Illustrator 16.0.0, SVG Export Plug-In . SVG Version: 6.00 Build 0)  -->
<!DOCTYPE svg PUBLIC "-//W3C//DTD SVG 1.1//EN" "http://www.w3.org/Graphics/SVG/1.1/DTD/svg11.dtd">
<svg version="1.1" id="Capa_1" xmlns="http://www.w3.org/2000/svg" xmlns:xlink="http://www.w3.org/1999/xlink" x="0px" y="0px"
	 width="1200px" height="500px" viewBox="-474.571 0 1200 500" enable-background="new -474.571 0 1200 500" xml:space="preserve">
<path d="M179.848,106.897c-1.715-3.886-4.411-7.305-7.828-9.942c1.03-3.962,0.388-7.265-1.95-10.074
	c-2.696-3.247-8.052-6.118-17.325-9.284c-0.592-1.09-1.385-2.169-2.366-3.213c-4.601-4.9-13.841-10.724-24.746-11.008
	c-11.007-0.3-21.417,4.918-26.323,9.757c-1.698,1.676-2.856,3.482-3.45,5.377c-8.226,3.228-13.89,5.889-16.676,9.031
	c-3.378,3.81-2.206,7.863-1.282,10.003c-3.226,2.622-5.653,5.888-7.222,9.726c-2.977,7.288-1.992,14.107-0.604,16.913
	c0.452,0.913,1.862,3.035,5.181,3.035c2.707,0,6.065-1.452,10.322-3.294c2.129-0.921,4.323-1.87,6.637-2.737
	c1.751,1.688,3.473,2.74,5.364,3.289c0.998,0.288,2.071,0.433,3.194,0.433c3.416,0,7.211-1.387,10.481-2.747l3.625-1.542
	c2.737,1.448,5.934,2.715,10.47,2.715h0.155c4.018-0.021,7.692-0.867,11.511-2.656l2.992,1.24c3.892,1.654,6.964,2.96,10.006,2.96
	c0.79,0,1.553-0.091,2.269-0.271c2.098-0.522,3.991-1.79,5.904-3.963c2.537,0.919,4.941,1.944,7.3,2.949
	c4.301,1.833,7.698,3.281,10.392,3.281c3.348,0,4.697-2.145,5.119-3.065C182.299,121.002,183.065,114.182,179.848,106.897z
	 M87.655,115.455c-1.796,0.722-3.487,1.453-4.907,2.067c-2.456,1.062-5.187,2.241-6.743,2.607
	c-0.436-1.987-0.577-5.963,1.138-10.164c0.959-2.349,2.354-4.395,4.156-6.102L87.655,115.455z M108.813,115.595l-0.299,0.128
	c-3.549,1.476-6.135,2.192-7.904,2.192c-0.446,0-0.834-0.047-1.151-0.139c-1.838-0.534-3.628-2.799-5.36-5.014L85.81,97.648
	c-2.18-3.725-2.252-4.469-1.384-5.448c1.793-2.022,6.954-4.341,11.668-6.248c0.348,1.134,0.779,2.207,1.178,3.2l7.372,18.317
	C105.756,110.233,106.901,113.076,108.813,115.595z M124.833,70.342l0.688,0.01c8.18,0.213,15.835,4.564,19.794,8.781
	c2.555,2.721,2.019,4.178,0.822,7.434l-6.728,21.331c-0.88,2.381-1.515,4.101-3.649,5.509c-2.864,1.885-6.544,2.934-10.354,2.955
	h-0.126c-3.641,0-6.597-1.033-9.304-3.25c-2.341-1.913-3.571-4.968-4.876-8.207l-7.361-18.297c-1.705-4.24-2.072-5.949,0.494-8.481
	C108.156,74.258,116.49,70.345,124.833,70.342z M163.229,100.13c-2.513,4.15-5.114,8.441-7.443,11.963
	c-1.316,1.987-3.52,5.316-5.255,5.749c-0.162,0.04-0.351,0.06-0.565,0.06c-1.515,0-3.986-1.002-6.655-2.131
	c1.335-1.839,2.045-3.771,2.701-5.558l6.734-21.341c0.373-1.01,0.81-2.195,1.086-3.509c7.116,2.68,9.857,4.694,10.893,5.941
	C166.18,93.06,165.591,95.158,163.229,100.13z M174.957,119.774c-1.6-0.378-4.339-1.546-6.807-2.599
	c-1.751-0.747-3.688-1.573-5.761-2.375c2.24-3.455,4.673-7.474,6.873-11.112c1.787,1.681,3.198,3.683,4.209,5.971
	C175.312,113.83,175.317,117.774,174.957,119.774z"/>
<path d="M264.12,159.653c-16.791-25.966-40.412-46.652-68.31-59.823l-2.271,4.81c54.849,25.895,90.568,81.37,91.589,141.854h-16.177
	v5.319h16.166c-1.41,85.962-71.066,155.616-157.028,157.029v-15.652h-5.318v15.652c-85.963-1.413-155.617-71.067-157.029-157.029
	h16.168v-5.319h-16.156c0.962-58.679,33.666-111.775,85.874-139.027l-2.46-4.715c-54.76,28.582-88.778,84.68-88.778,146.401
	c0,91.004,74.037,165.042,165.041,165.042s165.041-74.037,165.041-165.042C290.471,217.262,281.358,186.313,264.12,159.653z"/>
<g>
	<path d="M-147.935,325.77v39.483h-62.516v106.187h-44.867V365.253h-219.254v-26.92l171.993-309.588h48.458L-418.636,325.77h163.319
		l6.28-147.465h38.586V325.77H-147.935z"/>
</g>
<g>
	<path d="M725.43,325.77v39.483h-62.516v106.187h-44.865V365.253H398.793v-26.92L570.786,28.745h48.458L454.729,325.77h163.319
		l6.279-147.465h38.586V325.77H725.43z"/>
</g>
<path d="M125.43,481.478c-61.829,0-119.958-24.077-163.677-67.797c-43.72-43.72-67.797-101.848-67.797-163.677
	s24.078-119.958,67.797-163.677C5.472,42.607,63.601,18.53,125.43,18.53s119.957,24.078,163.677,67.797
	c43.72,43.719,67.797,101.848,67.797,163.677s-24.077,119.957-67.797,163.677S187.259,481.478,125.43,481.478z M125.43,53.53
	c-108.336,0-196.474,88.138-196.474,196.474c0,108.336,88.138,196.474,196.474,196.474c108.336,0,196.474-88.138,196.474-196.474
	C321.903,141.667,233.766,53.53,125.43,53.53z"/>
</svg>
