<?xml version="1.0" encoding="utf-8"?>
<!-- Generator: Adobe Illustrator 16.0.0, SVG Export Plug-In . SVG Version: 6.00 Build 0)  -->
<!DOCTYPE svg PUBLIC "-//W3C//DTD SVG 1.1//EN" "http://www.w3.org/Graphics/SVG/1.1/DTD/svg11.dtd">
<svg version="1.1" id="Capa_1" xmlns="http://www.w3.org/2000/svg" xmlns:xlink="http://www.w3.org/1999/xlink" x="0px" y="0px"
	 width="373.431px" height="690.918px" viewBox="212.585 76.665 373.431 690.918"
	 enable-background="new 212.585 76.665 373.431 690.918" xml:space="preserve">
<path d="M565.842,459.044c-13.454-21.062-30.263-36.353-50.439-45.87c-19.31-9.107-43.112-16.874-71.374-23.312V220.689
	c8.396,1.55,16.833,3.774,25.315,6.72c17.891,6.222,36.221,15.673,55.005,28.36l46.822-64.332
	c-16.749-11.165-33.629-20.491-50.63-27.98c-17.005-7.482-34.198-13.066-51.579-16.749c-8.269-1.748-16.58-3.067-24.934-3.985
	V79.522h-77.655v65.338c-19.026,3.041-35.972,7.965-50.819,14.791c-26.777,12.313-46.886,30.709-60.335,55.197
	c-13.454,24.492-20.175,55.262-20.175,92.312v0.38c0,38.066,7.483,67.443,22.459,88.123c14.971,20.688,32.987,34.962,54.054,42.825
	c14.988,5.6,33.271,10.812,54.816,15.639v172.195c-14.311-2.683-27.955-7.232-40.922-13.681
	c-22.209-11.039-42.443-27.597-60.715-49.675l-52.151,63.19c16.749,17.767,34.7,32.546,53.864,44.346
	c19.158,11.802,39.714,20.688,61.667,26.646c21.947,5.961,32.928,8.945,32.928,8.945s1.784,0,5.33,0v61.667h77.655v-64.41
	c22.07-2.815,41.56-7.791,58.433-14.957c27.789-11.802,48.659-29.562,62.619-53.293c13.954-23.727,20.936-53.483,20.936-89.266
	v-0.762C586.015,508.786,579.29,480.111,565.842,459.044z M330.21,346.176c-9.647-10.782-14.465-25.694-14.465-44.728v-0.379
	c0-27.658,8.375-48.405,25.124-62.24c7.022-5.798,15.538-10.364,25.504-13.731v144.798
	C351.864,364.821,339.809,356.919,330.21,346.176z M505.315,543.933c0,28.681-8.886,50.057-26.646,64.14
	c-9.129,7.238-20.688,12.602-34.641,16.12V471.115c5.349,1.619,10.326,3.303,14.846,5.06c13.704,5.33,24.869,13.322,33.499,23.98
	c8.625,10.659,12.942,25.124,12.942,43.396V543.933z"/>
</svg>
