<?xml version="1.0" encoding="utf-8"?>
<!-- Generator: Adobe Illustrator 16.0.0, SVG Export Plug-In . SVG Version: 6.00 Build 0)  -->
<!DOCTYPE svg PUBLIC "-//W3C//DTD SVG 1.1//EN" "http://www.w3.org/Graphics/SVG/1.1/DTD/svg11.dtd">
<svg version="1.1" id="Capa_1" xmlns="http://www.w3.org/2000/svg" xmlns:xlink="http://www.w3.org/1999/xlink" x="0px" y="0px"
	 width="700px" height="381.324px" viewBox="0 0 700 381.324" enable-background="new 0 0 700 381.324" xml:space="preserve">
<g id="Layer_1">
	<path id="path22036" d="M349.518,356.191c-26.16,0-44.975-6.986-64.652-17.771l-13.377,5.699l-12.798,5.442
		c-19.504,8.11-42.116,16.409-61.914,16.409c-6.217,0-12.126-0.803-17.555-2.368c-13.251-3.842-23.969-12.12-33.524-22.089
		c-16.444,5.959-32.106,12.734-46.678,19.036c-25.554,11.052-45.741,19.775-60.83,19.775c-15.424,0-22.159-8.94-24.799-14.264
		c-7.656-15.474-13.357-55.843,3.996-98.323c7.711-18.86,21.809-41.928,47.516-61.103c-8.76-17.765-14.112-38.868,3.869-59.148
		c17.576-19.838,58.651-37.624,104.315-55.423c2.607-10.926,8.727-22.229,20.377-33.727c29.949-29.535,92.114-60.026,157.576-58.267
		c62.032,1.621,118.429,34.334,147.985,65.812c6.824,7.266,11.637,14.3,14.907,21.062c44.681,15.075,88.096,33.302,107.132,56.222
		c16.198,19.468,15.36,40.299,8.962,60.558c27.021,19.329,42.173,42.773,50.618,61.906c18.749,42.466,14.375,82.836,7.223,98.302
		c-2.452,5.323-8.879,14.258-24.316,14.258c-15.082,0-35.55-8.732-61.475-19.784c-15.913-6.775-33.083-14.096-51.105-20.369
		c-10.534,12.986-21.845,22.773-36.066,26.315c-3.823,0.957-7.887,1.438-12.1,1.438c-17.178,0-35.613-7.816-58.951-17.736
		l-4.451-1.886l-17.631-7.259c-21.572,10.563-44.408,17.143-71.331,17.282H349.518z M126.635,318.726l-1.216-1.858l-47.361-86.363
		c-16.019,12.673-28.007,28.628-35.81,47.733c-13.188,32.287-10.087,64.072-5.309,75.242l0.81,0.021
		c9.564,0,29.348-8.552,50.283-17.598c11.911-5.155,25.155-10.877,39.295-16.305C127.096,319.313,126.866,319.02,126.635,318.726
		 M616.175,236.59l-0.629,1.146c-15.982,26.419-32.511,53.727-47.558,76.473c-0.286,0.425-0.574,0.865-0.859,1.291
		c16.29,5.974,31.555,12.483,45.121,18.269c21.228,9.046,41.29,17.596,50.861,17.596l0.803-0.026
		c4.416-11.164,6.461-42.941-7.789-75.223c-8.27-18.735-20.453-34.432-36.423-46.985
		C618.529,231.637,617.348,234.124,616.175,236.59 M228.436,262.659l-45.771-113.733c-3.479-8.655-7.251-18.037-9.388-27.949
		c-37.422,14.838-71.569,30.129-84.303,44.485c-9.761,11.016-5.406,21.201,7.655,43.52l51.722,94.327
		c12.338,15.774,24.059,30.506,37.934,34.537c15.276,4.394,40.446-4.219,61.752-13.077l12.21-5.198
		C244.664,303.002,236.435,282.541,228.436,262.659 M511.984,147.433l-41.956,132.985c-4.904,13.329-10.17,27.621-22.424,40.294
		l1.914,0.781l4.472,1.9c24.107,10.234,42.382,17.841,54.005,14.935c12.861-3.206,25.093-20.369,37.541-39.188
		c14.649-22.131,30.912-48.984,46.657-74.998c13.95-29.347,21.397-48.354,8.354-64.037c-13.622-16.41-50.045-31.903-80.761-42.913
		C518.964,128.516,515.219,138.666,511.984,147.433 M346.347,26.833c-54.72,0-108.083,25.314-133.881,50.756
		c-20.307,20.036-15.375,35.704-4.932,61.677l45.749,113.718c8.515,21.14,16.535,41.076,32.734,54.321
		c16.108,13.188,35.922,22.062,63.054,22.062h0.789c27.083-0.14,51.171-8.062,68.886-19.721
		c15.542-10.248,20.334-23.233,25.896-38.288l41.935-132.942c7.566-20.554,12.42-33.713-6.965-54.343
		C454.569,57.402,404.803,28.3,350.789,26.896L346.347,26.833"/>
</g>
</svg>
