<?xml version="1.0" encoding="utf-8"?>
<!-- Generator: Adobe Illustrator 16.0.0, SVG Export Plug-In . SVG Version: 6.00 Build 0)  -->
<!DOCTYPE svg PUBLIC "-//W3C//DTD SVG 1.1//EN" "http://www.w3.org/Graphics/SVG/1.1/DTD/svg11.dtd">
<svg version="1.1" id="Capa_1" xmlns:serif="http://www.serif.com/"
	 xmlns="http://www.w3.org/2000/svg" xmlns:xlink="http://www.w3.org/1999/xlink" x="0px" y="0px" width="615.061px"
	 height="753.075px" viewBox="87.286 24.281 615.061 753.075" enable-background="new 87.286 24.281 615.061 753.075"
	 xml:space="preserve">
<g>
	<path d="M275,200h250c13.801,0,25-11.2,25-25s-11.199-25-25-25H275c-13.8,0-25,11.2-25,25S261.2,200,275,200z"/>
	<path d="M650,50H150c-13.8,0-25,11.2-25,25v650c0,13.801,11.2,25,25,25h500c13.801,0,25-11.199,25-25V75
		C675,61.2,663.801,50,650,50z M625,700H175V100h450V700z"/>
	<path d="M325,250c-13.8,0-25,11.2-25,25s11.2,25,25,25h150c13.801,0,25-11.2,25-25s-11.199-25-25-25H325z"/>
	<path d="M400,650c82.775,0,150-67.225,150-150c0-82.774-67.225-150-150-150c-82.774,0-150,67.226-150,150
		C250,582.775,317.225,650,400,650z M375,403.15V500c0,13.801,11.2,25,25,25h96.851c-11.125,43.101-50.3,75-96.851,75
		c-55.2,0-100-44.8-100-100C300,453.45,331.9,414.275,375,403.15z"/>
</g>
</svg>
