<?xml version="1.0" encoding="utf-8"?>
<!-- Generator: Adobe Illustrator 16.0.0, SVG Export Plug-In . SVG Version: 6.00 Build 0)  -->
<!DOCTYPE svg PUBLIC "-//W3C//DTD SVG 1.1//EN" "http://www.w3.org/Graphics/SVG/1.1/DTD/svg11.dtd">
<svg version="1.1" id="Flat" xmlns="http://www.w3.org/2000/svg" xmlns:xlink="http://www.w3.org/1999/xlink" x="0px" y="0px"
	 width="800px" height="800px" viewBox="0 0 800 800" enable-background="new 0 0 800 800" xml:space="preserve">
<path d="M780.161,140.303L659.681,19.823c-11.764-11.764-30.834-11.765-42.599-0.001c0,0,0,0,0,0.001l-361.441,361.44
	c-5.647,5.648-8.82,13.309-8.819,21.296v120.48c0,16.636,13.485,30.12,30.12,30.12h120.48c7.988,0,15.65-3.174,21.299-8.822
	l361.439-361.44C791.924,171.135,791.924,152.065,780.161,140.303z M668.502,209.365l-77.884-77.885l47.764-47.765l77.886,77.885
	L668.502,209.365z M758.862,372.44v331.32c-0.039,33.255-26.987,60.202-60.24,60.24h-602.4c-33.254-0.038-60.202-26.985-60.24-60.24
	v-602.4c0.038-33.253,26.985-60.201,60.24-60.24h331.32c16.635,0,30.12,13.486,30.12,30.12c0,16.635-13.485,30.12-30.12,30.12
	H96.222v602.4h602.4V372.44c0-16.634,13.484-30.12,30.12-30.12C745.377,342.32,758.862,355.805,758.862,372.44z"/>
</svg>
