<?xml version="1.0" encoding="utf-8"?>
<!-- Generator: Adobe Illustrator 16.0.0, SVG Export Plug-In . SVG Version: 6.00 Build 0)  -->
<!DOCTYPE svg PUBLIC "-//W3C//DTD SVG 1.1//EN" "http://www.w3.org/Graphics/SVG/1.1/DTD/svg11.dtd">
<svg version="1.1" id="Capa_1" xmlns="http://www.w3.org/2000/svg" xmlns:xlink="http://www.w3.org/1999/xlink" x="0px" y="0px"
	 width="467.198px" height="690.918px" viewBox="166.401 76.665 467.198 690.918"
	 enable-background="new 166.401 76.665 467.198 690.918" xml:space="preserve">
<path d="M400,423.335c-95.577,0-173.335-77.758-173.335-173.335S304.423,76.665,400,76.665S573.335,154.423,573.335,250
	S495.577,423.335,400,423.335z M400,118.665c-72.418,0-131.335,58.917-131.335,131.335S327.581,381.335,400,381.335
	c72.418,0,131.335-58.917,131.335-131.335S472.418,118.665,400,118.665z"/>
<path d="M633.598,767.583h-42v-21c0-120.345-85.951-218.253-191.599-218.253c-105.648,0-191.599,97.908-191.599,218.253v21h-42v-21
	c0-69.054,23.997-134.09,67.571-183.126C278.167,513.72,337.13,486.33,400,486.33c62.87,0,121.833,27.391,166.028,77.127
	c43.573,49.036,67.57,114.071,67.57,183.126V767.583z"/>
</svg>
