<?xml version="1.0" encoding="utf-8"?>
<!-- Generator: Adobe Illustrator 16.0.0, SVG Export Plug-In . SVG Version: 6.00 Build 0)  -->
<!DOCTYPE svg PUBLIC "-//W3C//DTD SVG 1.1//EN" "http://www.w3.org/Graphics/SVG/1.1/DTD/svg11.dtd">
<svg version="1.1" id="Capa_1" xmlns="http://www.w3.org/2000/svg" xmlns:xlink="http://www.w3.org/1999/xlink" x="0px" y="0px"
	 width="685.977px" height="736.334px" viewBox="0 0 685.977 736.334" enable-background="new 0 0 685.977 736.334"
	 xml:space="preserve">
<path d="M669.267,169.736L633.889,28.424c-2.266-9.084-10.375-15.422-19.725-15.425H80.834c-9.347,0.003-17.458,6.341-19.72,15.414
	L25.845,169.616c-9.137,35.839-1.054,74.534,21.605,103.67c2.771,3.042,5.72,5.98,8.769,8.737c2.734,2.472,4.29,5.988,4.281,9.674
	l-1,411.334c0,11.181,9.122,20.303,20.334,20.303h533.333c11.211,0,20.332-9.122,20.332-20.334l1-411.299
	c0.009-3.664,1.563-7.155,4.282-9.612c3.047-2.754,5.996-5.693,8.771-8.741C670.248,244.226,678.365,205.53,669.267,169.736z
	 M265.779,192.24l10.532-126.651c0.56-6.739,6.193-11.923,12.955-11.923h116.467c6.762,0,12.395,5.184,12.955,11.923l10.534,126.667
	c3.744,44.284-29.251,83.376-73.552,87.125c-2.247,0.189-4.512,0.286-6.734,0.286h-2.802c-0.004,0-0.011,0-0.011,0
	c-44.455,0-80.625-36.168-80.63-80.625C265.493,196.773,265.59,194.485,265.779,192.24z M62.849,199.056
	c-0.003-6.592,0.807-13.181,2.407-19.579l29-115.965c1.447-5.787,6.647-9.846,12.612-9.846h115.5c3.636,0,7.106,1.523,9.567,4.199
	c2.462,2.676,3.69,6.261,3.388,9.884l-11.533,138c-1.797,20.194-10.969,38.813-25.832,52.498
	c-14.862,13.685-34.173,21.292-54.375,21.419c-0.027,0-0.077,0-0.104,0C99.03,279.666,62.859,243.505,62.849,199.056z
	 M392.834,669.731c-0.035,7.154-5.846,12.936-13,12.936h-66.667c-3.459,0-6.775-1.379-9.215-3.83
	c-2.44-2.452-3.802-5.775-3.785-9.234l1-202.666c0.036-7.154,5.845-12.936,13-12.936h66.667c3.459,0,6.775,1.379,9.215,3.83
	c2.44,2.452,3.802,5.775,3.785,9.234L392.834,669.731z M592.833,669.705c-0.021,7.165-5.835,12.962-13,12.962H446.499
	c-3.457,0-6.772-1.377-9.212-3.827s-3.803-5.771-3.788-9.228l1-236c0-11.156-9.121-20.277-20.332-20.277H280.834
	c-11.212,0-20.334,9.121-20.334,20.332l-1,236.055c-0.03,7.158-5.842,12.945-13,12.945H113.167c-3.455,0-6.767-1.375-9.206-3.821
	c-2.439-2.446-3.804-5.763-3.794-9.217l1-339.666c0.012-3.952,1.82-7.684,4.915-10.142c3.094-2.458,7.137-3.373,10.991-2.492
	c8.709,1.997,17.644,3.009,26.556,3.009c35.185,0,68.347-15.454,90.984-42.4c2.434-2.898,6.01-4.591,9.794-4.637
	c3.808-0.048,7.401,1.559,9.905,4.396c1.058,1.198,1.821,2.333,2.378,3.16c0.127,0.189,0.25,0.382,0.385,0.567
	c22.919,24.703,55.364,38.881,89.069,38.909h2.723c33.725-0.028,66.197-14.232,89.119-38.977c0.13-0.177,0.249-0.363,0.372-0.545
	c0.546-0.805,1.293-1.908,2.325-3.077c2.503-2.838,6.12-4.432,9.904-4.4c3.784,0.045,7.361,1.737,9.796,4.634
	c22.637,26.93,55.792,42.375,90.966,42.375c8.919,0,17.86-1.014,26.576-3.014c3.865-0.886,7.924,0.039,11.021,2.515
	c3.099,2.475,4.897,6.229,4.886,10.194L592.833,669.705z M571.072,277.26c-6.387,1.598-12.965,2.408-19.549,2.408
	c-0.028,0-0.079,0-0.106,0c-20.202-0.129-39.512-7.736-54.374-21.421c-14.862-13.685-24.033-32.304-25.825-52.428L459.679,67.75
	c-0.303-3.623,0.926-7.208,3.388-9.884s5.932-4.199,9.567-4.199h115.5c5.965,0,11.164,4.06,12.611,9.846l29,115.966
	C640.527,222.614,614.206,266.478,571.072,277.26z"/>
</svg>
