<?xml version="1.0" encoding="utf-8"?>
<!-- Generator: Adobe Illustrator 16.0.0, SVG Export Plug-In . SVG Version: 6.00 Build 0)  -->
<!DOCTYPE svg PUBLIC "-//W3C//DTD SVG 1.1//EN" "http://www.w3.org/Graphics/SVG/1.1/DTD/svg11.dtd">
<svg version="1.1" id="Capa_1" xmlns="http://www.w3.org/2000/svg" xmlns:xlink="http://www.w3.org/1999/xlink" x="0px" y="0px"
	 width="800px" height="800px" viewBox="0 0 800 800" enable-background="new 0 0 800 800" xml:space="preserve">
<path d="M475.823,109.365c-13.21,0-23.957,10.748-23.957,23.958c0,13.21,10.747,23.958,23.957,23.958
	c13.211,0,23.959-10.748,23.959-23.958C499.782,120.113,489.034,109.365,475.823,109.365z"/>
<path d="M369.99,109.365c-13.211,0-23.958,10.748-23.958,23.958c0,13.21,10.748,23.958,23.958,23.958
	c13.21,0,23.957-10.748,23.957-23.958C393.947,120.113,383.2,109.365,369.99,109.365z"/>
<path d="M422.915,74.088c-13.211,0-23.958,10.747-23.958,23.957c0,13.21,10.748,23.958,23.958,23.958
	c13.21,0,23.958-10.747,23.958-23.958C446.873,84.835,436.125,74.088,422.915,74.088z"/>
<path d="M557.646,480.633h-38.779c-12.88,0-25.377,2.315-37.289,6.895c3.105-31.215-7.742-62.118-30.143-84.518l-27.42-27.421
	c-4.135-4.134-9.626-6.411-15.465-6.411c-5.838,0-11.329,2.277-15.464,6.411l-27.419,27.421
	c-22.378,22.377-33.233,53.249-30.156,84.43c-11.857-4.532-24.275-6.822-37.058-6.822h-38.764c-12.061,0-21.873,9.812-21.873,21.873
	v38.764c0,57.899,47.097,105.003,104.988,105.003h38.778c12.061,0,21.874-9.812,21.874-21.873v-38.765
	c0-0.304-0.003-0.608-0.006-0.916c1.656,0.396,3.37,0.599,5.116,0.599c1.822,0,3.611-0.222,5.335-0.652
	c-0.003,0.325-0.005,0.647-0.005,0.97v38.765c0,12.062,9.812,21.873,21.872,21.873h38.764c57.898,0,105.003-47.104,105.003-105.003
	V502.49C579.511,490.432,569.693,480.633,557.646,480.633z M281.546,541.268v-16.891h16.892c33.777,0,61.257,27.48,61.257,61.257
	v16.892h-16.907C309.019,602.526,281.546,575.047,281.546,541.268z M420.505,520.562l-11.953,11.952l-11.956-11.954
	c-23.874-23.875-23.874-62.734,0.002-86.624l11.954-11.952l11.955,11.954C444.382,457.813,444.381,496.673,420.505,520.562z
	 M457.626,585.635c0-33.776,27.473-61.257,61.241-61.257h16.906v16.891c0,33.778-27.479,61.258-61.257,61.258h-16.891V585.635z"/>
<path d="M782.369,702.26l-42.035-42.036c-0.05-0.726-0.116-1.456-0.194-2.188l-0.005-0.043l-0.005-0.041L698.692,316.37
	c8.291-2.901,14.983-7.884,20.924-13.196c26.71-23.882,0.118-73.734-19.253-91.644c-18.022-16.661-42.161-28.403-68.244-33.249
	c-9.92-16.839-34.171-54.408-71.936-90.396c-22.521-21.463-46.522-39.177-71.335-52.65C458.765,18.902,427.172,8.648,394.944,4.76
	l-5.225-0.002c-32.131,3.877-63.614,14.071-93.596,30.301c-24.754,13.399-48.706,31.021-71.19,52.373
	c-37.771,35.869-62.165,73.505-72.177,90.427c-26.688,4.426-51.488,16.02-70.115,32.83c-20.002,18.052-31.018,40.509-31.018,63.235
	v3.096c0,20.454,16.862,37.304,40.915,41.808l-33.131,340.15c-0.059,0.532-0.109,1.075-0.151,1.629l-41.623,41.653
	c-13.74,13.757-17.006,33.876-8.324,51.257c7.586,15.127,22.799,24.518,39.708,24.518c2.063,0,4.16-0.14,6.232-0.414l0.032-0.004
	l0.032-0.005l79.541-11.381c0.488,0.135,0.992,0.26,1.519,0.379c86.311,19.167,174.228,28.883,261.334,28.883
	c82.712,0,166.25-8.759,248.293-26.03l16.078-3.392l0.036-0.008l0.036-0.009c0.206-0.046,0.409-0.093,0.613-0.142l81.912,11.713
	c2.207,0.33,4.478,0.5,6.715,0.5c16.659,0,31.709-9.431,39.275-24.612C799.373,736.149,796.12,716.027,782.369,702.26z
	 M392.32,48.531c91.502,12.28,156.566,86.71,185.721,127.251h-371.51C235.595,135.249,300.543,60.826,392.32,48.531z
	 M95.368,273.923c0-11.858,8.525-25.244,22.804-35.807c16.203-11.987,37.05-18.588,58.699-18.588h428.284
	c21.647,0,42.494,6.604,58.699,18.593c14.279,10.565,22.804,23.949,22.804,35.802v0.035v0.036l0.001,0.021
	c-0.606,0.333-1.427,0.722-2.461,1.094l-129.679,19.055c-36.112,5.3-97.428,8.464-164.021,8.464c-1.361,0-2.718-0.001-4.079-0.004
	c-68.327-0.132-130.915-3.531-167.422-9.094l-115.575-17.631c0,0-7.492-1.529-8.054-1.82V273.923z M751.572,733.909
	c-0.104,0.204-0.201,0.324-0.25,0.372c-0.034,0.006-0.1,0.016-0.207,0.016c-0.092,0-0.193-0.007-0.303-0.02
	c0,0-97.216-11.286-98.216-10.91l-15.596,3.288c-78.958,16.633-159.35,25.066-238.943,25.066
	c-84.068,0-168.992-9.405-252.411-27.954c-0.858-0.306-96.462,10.528-96.462,10.528c-0.109,0.014-0.21,0.02-0.3,0.02
	c-0.153,0-0.215-0.02-0.216-0.02c0-0.007-0.117-0.124-0.245-0.366c-0.091-0.188-0.126-0.33-0.136-0.398
	c0.035-0.062,0.124-0.19,0.297-0.366c0,0,54.227-68.567,54.339-69.589l0.005-0.041l0.004-0.041l32.953-338.383
	c0,0,111.069,15.979,256.357,21.321c24.722,0.909,163.196-8.206,168.646-8.998l94.615-13.891l41.191,339.524
	c0.098,0.811,0.081,1.733,0.062,2.804c-0.005,0.306-0.012,0.61-0.015,0.915l54.695,66.384c0.168,0.171,0.245,0.288,0.276,0.341
	C751.702,733.585,751.662,733.732,751.572,733.909z"/>
</svg>
