<?xml version="1.0" encoding="utf-8"?>
<!-- Generator: Adobe Illustrator 16.0.0, SVG Export Plug-In . SVG Version: 6.00 Build 0)  -->
<!DOCTYPE svg PUBLIC "-//W3C//DTD SVG 1.1//EN" "http://www.w3.org/Graphics/SVG/1.1/DTD/svg11.dtd">
<svg version="1.1" id="Capa_1" xmlns="http://www.w3.org/2000/svg" xmlns:xlink="http://www.w3.org/1999/xlink" x="0px" y="0px"
	 width="699.988px" height="197.071px" viewBox="0.007 184.253 699.988 197.071"
	 enable-background="new 0.007 184.253 699.988 197.071" xml:space="preserve">
<g>
</g>
<g>
</g>
<g>
</g>
<g>
</g>
<g>
</g>
<g>
</g>
<g>
</g>
<g>
</g>
<g>
</g>
<g>
</g>
<g>
</g>
<path d="M646.166,245.162h-37.188c0.427-3.579-0.247-7.163-3.085-10.576c-4.608-5.55-15.133-9.971-25.953-13.621
	c-0.796-1.639-1.961-3.346-3.613-5.106c-7.159-7.621-20.822-15.551-35.856-15.94c-15.856-0.431-30.922,6.96-38.178,14.113
	c-2.817,2.786-4.306,5.525-4.938,8.173c-4.313,1.681-8.448,3.361-12.151,5.071c-8.271-5.778-19.509-10.498-31.563-10.809
	c-17.459-0.476-34.05,7.662-42.04,15.539c-0.153,0.151-0.287,0.303-0.434,0.454c0.01-0.01,0.018-0.02,0.027-0.03
	c-5.273-4.555-14.425-8.301-23.806-11.465c-0.795-1.639-1.961-3.346-3.612-5.106c-7.16-7.621-20.822-15.551-35.857-15.94
	c-15.855-0.431-30.921,6.96-38.178,14.113c-2.817,2.786-4.305,5.525-4.937,8.173c-9.374,3.653-17.931,7.308-22.924,11.259
	c0.18,0.186,0.376,0.37,0.55,0.556c-7.884-8.392-22.929-17.125-39.485-17.552c-12.968-0.354-25.449,4.048-34.29,9.563
	c-4.04-1.844-8.549-3.523-13.117-5.064c-0.795-1.639-1.961-3.346-3.613-5.106c-7.159-7.621-20.822-15.551-35.857-15.94
	c-15.855-0.431-30.921,6.96-38.177,14.113c-2.818,2.786-4.306,5.525-4.937,8.173c-11.064,4.312-21.011,8.623-25.273,13.426
	c-2.822,3.188-3.264,6.456-2.653,9.532H53.834L0.007,349.202v32.122h699.988v-32.122L646.166,245.162z M608.322,275.805
	c0.99-2.68,2.142-5.787,2.387-9.257c9.41,3.369,20.563,8.112,24.738,13.141c3.991,4.805,1.711,10.622-2.563,19.61
	c-4.82,7.968-9.802,16.188-14.284,22.966c-3.815,5.765-7.561,11.021-11.499,12.004c-3.561,0.891-9.155-1.443-16.54-4.574
	l-1.366-0.584l-0.591-0.237c3.753-3.884,5.365-8.259,6.87-12.343L608.322,275.805z M640.036,303.459l0.192-0.345
	c0.36-0.761,0.722-1.52,1.082-2.287c4.89,3.845,8.619,8.65,11.152,14.392c4.367,9.886,3.738,19.61,2.388,23.033l-0.246,0.009
	c-2.933,0-9.073-2.618-15.581-5.39c-4.153-1.772-8.827-3.768-13.816-5.595c0.093-0.131,0.177-0.269,0.262-0.398
	C630.081,319.916,635.14,311.55,640.036,303.459z M579.737,234.885c0.711-1.946,1.445-4.156,1.619-6.59
	c7.444,2.666,16.268,6.419,19.571,10.396c2.144,2.581,1.997,5.534,0.625,9.387c-5.511-5.021-13.096-9.889-21.83-13.197
	C579.727,234.882,579.732,234.884,579.737,234.885z M598.405,256.4c5.94,6.317,4.452,10.348,2.134,16.648l-12.841,40.711
	c-1.704,4.605-3.171,8.59-7.93,11.721c-5.427,3.577-12.802,6.002-21.1,6.04h-0.238c-8.312,0-14.376-2.717-19.311-6.754
	c-4.96-4.053-7.416-10.162-10.025-16.633l-14.008-34.831c-3.2-7.952-4.713-12.75,1.513-18.883
	c7.898-7.798,24.239-15.55,40.995-15.55l1.357,0.022C575.5,239.322,590.737,248.234,598.405,256.4z M481.122,294.656
	c-3.999-6.832-5.334-9.956-2.349-13.325c3.899-4.397,14.361-9.081,25.82-13.624c0.652,3.031,1.812,5.909,2.879,8.558l14.016,34.832
	c2.448,6.087,4.965,12.35,9.739,17.424l-3.737,1.596c-6.524,2.709-14.238,5.351-18.913,4.007c-4.252-1.236-7.837-5.749-11.62-10.576
	L481.122,294.656z M490.525,328.527c-4.336,1.666-8.389,3.416-12.035,4.997c-6.416,2.771-12.473,5.388-15.396,5.388l-0.254-0.007
	c-1.458-3.416-2.41-13.148,1.627-23.042c2.388-5.849,6.063-10.738,10.969-14.615l14.499,26.45l0.376,0.568
	C490.379,328.352,490.448,328.443,490.525,328.527z M506.902,218.7c6.249-6.169,19.17-12.303,32.434-12.303l1.074,0.019
	c13.092,0.34,25.146,7.391,31.212,13.851c4.516,4.803,3.604,7.938,1.899,12.597c0.006,0.002,0.012,0.004,0.018,0.006
	c-4.639-1.268-9.513-2.06-14.51-2.189c-18.268-0.497-35.703,7.222-45.593,15.439c0.004-0.003,0.007-0.006,0.011-0.009
	c-1.204-0.584-2.453-1.154-3.739-1.71c0.13,0.057,0.265,0.11,0.394,0.167l-4.395-10.929
	C503.173,227.348,501.977,223.552,506.902,218.7z M508.158,251.485c-1.908,2.501-3.053,4.962-3.626,7.364
	c-3.706,1.443-7.306,2.889-10.707,4.344c0.164-0.069,0.321-0.14,0.485-0.209l2.273-7.207c0.862-2.333,1.865-5.041,2.079-8.063
	C501.748,248.818,505.048,250.092,508.158,251.485z M497.405,229.212c0.511,2.398,1.434,4.676,2.277,6.771l2.135,5.308
	c0.114,0.042,0.227,0.084,0.34,0.126c-1.666-0.609-3.353-1.201-5.05-1.773c-0.877-1.806-2.16-3.685-3.979-5.624
	c-0.672-0.715-1.413-1.432-2.187-2.146C493.006,230.982,495.18,230.094,497.405,229.212z M416.676,237.148
	c6.881-6.794,21.117-13.548,35.715-13.548l1.183,0.021c14.417,0.374,27.691,8.137,34.371,15.253
	c5.176,5.502,3.878,9.013,1.858,14.503l-4.304,13.645c0.008-0.004,0.016-0.008,0.022-0.011c-5.647,2.83-10.212,5.74-12.935,8.809
	c-5.503,6.218-3.868,12.68-1.183,18.115c-3.876,2.891-6.887,6.07-9.229,9.243c0.001-0.001,0.002-0.004,0.004-0.006
	c-2.757,0.708-5.723,1.132-8.854,1.146h-0.207c-3.525,0-6.583-0.564-9.292-1.546c-2.541-3.343-5.817-6.7-10.05-9.728
	c1.958-6.202,2.211-12.58-2.747-18.544c-2.388-2.875-6.046-5.508-10.456-7.935l-5.215-12.968
	C412.572,246.67,411.253,242.491,416.676,237.148z M444.156,338.252l-0.245,0.009c-2.933,0-9.073-2.618-15.582-5.39
	c-4.152-1.772-8.826-3.768-13.815-5.595c0.092-0.131,0.176-0.269,0.261-0.398c4.612-6.962,9.671-15.328,14.568-23.419l0.191-0.345
	c0.36-0.761,0.722-1.52,1.082-2.287c4.89,3.845,8.62,8.65,11.153,14.392C446.136,325.104,445.507,334.829,444.156,338.252z
	 M424.752,279.688c3.991,4.805,1.711,10.622-2.563,19.61c-4.82,7.968-9.803,16.188-14.284,22.966
	c-3.815,5.765-7.562,11.021-11.499,12.004c-3.562,0.891-9.156-1.443-16.541-4.574l-1.366-0.584l-0.59-0.237
	c3.753-3.884,5.365-8.259,6.869-12.343l12.849-40.726c0.991-2.68,2.142-5.787,2.388-9.257
	C409.424,269.917,420.576,274.66,424.752,279.688z M411.096,262.066c0.026,0.011,0.052,0.022,0.078,0.033
	c-4.117-1.717-8.511-3.319-12.949-4.816c-0.65-1.341-1.501-2.718-2.584-4.126c0.007,0.009,0.015,0.018,0.021,0.026
	c3.23-1.49,6.832-2.984,10.556-4.46c0.569,2.641,1.579,5.148,2.509,7.456L411.096,262.066z M388.805,228.295
	c6.8,2.435,14.736,5.777,18.58,9.369c0.004-0.011,0.011-0.021,0.016-0.029c-0.566,1.136-0.971,2.261-1.235,3.372
	c-5.683,2.214-11.088,4.43-15.725,6.699c0.003,0.001,0.005,0.004,0.006,0.006c-1.768-1.58-3.738-3.141-5.883-4.639l2.353-7.455
	C387.7,233.499,388.611,231.039,388.805,228.295z M314.351,218.7c6.249-6.169,19.171-12.303,32.433-12.303l1.075,0.019
	c13.092,0.34,25.146,7.391,31.212,13.851c4.699,4.998,3.521,8.186,1.688,13.171l-1.907,6.044
	c-8.678-4.896-19.295-8.512-30.519-8.802c-12.13-0.33-23.891,2.965-33.322,7.621c0.005-0.003,0.01-0.006,0.015-0.009l-1.871-4.653
	C310.623,227.348,309.427,223.552,314.351,218.7z M346.899,238.87l1.358,0.022c16.549,0.43,31.785,9.342,39.453,17.508
	c5.94,6.317,4.451,10.348,2.134,16.648l-12.842,40.711c-1.703,4.605-3.17,8.59-7.929,11.721c-5.427,3.577-12.803,6.002-21.1,6.04
	h-0.239c-8.312,0-14.376-2.717-19.311-6.754c-4.959-4.053-7.415-10.162-10.024-16.633l-14.008-34.831
	c-3.2-7.952-4.712-12.75,1.513-18.883C313.802,246.622,330.143,238.87,346.899,238.87z M304.854,229.212
	c0.51,2.398,1.433,4.676,2.277,6.771l2.195,5.454c-2.443,1.501-4.653,3.078-6.575,4.675c-4.908-2.384-10.582-4.527-16.34-6.469
	c-0.162-0.333-0.352-0.67-0.542-1.007C289.658,235.559,296.955,232.345,304.854,229.212z M285.889,255.777
	c0.863-2.333,1.866-5.041,2.08-8.063c3.085,1.104,6.385,2.378,9.495,3.771c-1.909,2.501-3.052,4.962-3.626,7.364
	c-3.529,1.375-6.966,2.75-10.223,4.136L285.889,255.777z M293.899,267.707c0.653,3.031,1.812,5.909,2.878,8.558l14.016,34.832
	c2.448,6.087,4.965,12.35,9.739,17.424l-3.737,1.596c-6.524,2.709-14.238,5.351-18.913,4.007
	c-4.252-1.236-7.837-5.749-11.621-10.576l-15.834-28.891c-3.999-6.832-5.335-9.956-2.349-13.325
	C271.978,276.934,282.44,272.25,293.899,267.707z M253.772,315.863c2.388-5.849,6.063-10.738,10.968-14.615l14.499,26.45
	l0.376,0.568c0.069,0.085,0.138,0.177,0.215,0.261c-4.336,1.666-8.389,3.416-12.035,4.997c-6.417,2.771-12.473,5.388-15.397,5.388
	l-0.253-0.007C250.686,335.489,249.735,325.757,253.772,315.863z M241.696,223.601l1.184,0.021
	c14.417,0.374,27.69,8.137,34.371,15.253c5.175,5.502,3.878,9.013,1.858,14.503l-4.303,13.645c0.007-0.004,0.016-0.008,0.023-0.012
	c-5.649,2.831-10.212,5.741-12.936,8.81c-5.503,6.218-3.869,12.68-1.182,18.115c-3.874,2.889-6.883,6.066-9.225,9.237
	c-2.757,0.708-5.723,1.132-8.854,1.146h-0.207c-3.525,0-6.583-0.564-9.292-1.546c-2.542-3.343-5.817-6.7-10.049-9.728
	c1.958-6.202,2.21-12.58-2.748-18.544c-2.391-2.879-6.054-5.514-10.473-7.943c0.006,0.003,0.012,0.006,0.017,0.009l-5.215-12.968
	c-2.788-6.928-4.106-11.106,1.317-16.449C212.863,230.354,227.098,223.601,241.696,223.601z M186.931,275.805
	c0.99-2.68,2.142-5.787,2.387-9.257c9.41,3.369,20.563,8.112,24.738,13.141c3.991,4.805,1.711,10.622-2.564,19.61
	c-4.82,7.968-9.802,16.188-14.284,22.966c-3.815,5.765-7.561,11.021-11.498,12.004c-3.562,0.891-9.156-1.443-16.541-4.574
	l-1.366-0.584l-0.59-0.237c3.752-3.884,5.365-8.259,6.87-12.343L186.931,275.805z M204.079,326.878
	c4.612-6.962,9.671-15.328,14.567-23.419l0.192-0.345c0.36-0.761,0.722-1.52,1.082-2.287c4.89,3.845,8.62,8.65,11.152,14.392
	c4.368,9.886,3.739,19.61,2.388,23.033l-0.246,0.009c-2.933,0-9.073-2.618-15.582-5.39c-4.153-1.772-8.827-3.768-13.816-5.595
	C203.91,327.146,203.994,327.008,204.079,326.878z M193.069,241.95l1.997-6.332c0.783-2.119,1.694-4.579,1.889-7.323
	c1.833,0.656,3.749,1.378,5.645,2.154c-0.599,0.518-1.167,1.038-1.693,1.557c-3.103,3.07-4.741,6.085-5.436,9.001
	c-0.822,0.32-1.637,0.641-2.446,0.961C193.039,241.962,193.053,241.956,193.069,241.95z M195.524,248.724
	c0.568,2.641,1.578,5.148,2.507,7.456l2.369,5.887c-4.094-1.705-8.46-3.296-12.87-4.783c-0.647-1.334-1.493-2.704-2.567-4.104
	c0.001,0.001,0.002,0.003,0.004,0.004C188.198,251.693,191.8,250.199,195.524,248.724z M122.5,218.7
	c6.249-6.169,19.171-12.303,32.433-12.303l1.075,0.019c13.092,0.34,25.146,7.391,31.212,13.851c4.7,4.998,3.522,8.186,1.688,13.171
	l-3.71,11.762c0.015-0.007,0.03-0.013,0.044-0.02c-1.923,0.837-3.764,1.678-5.498,2.526c0.002,0.001,0.004,0.004,0.007,0.006
	c-9.588-8.566-25.157-16.594-42.113-17.032c-5.759-0.156-11.434,0.507-16.817,1.741C118.641,226.841,117.902,223.23,122.5,218.7z
	 M92.576,239.99c3.084-3.479,11.361-7.184,20.427-10.778c0.365,1.717,0.944,3.367,1.552,4.937c0.003-0.001,0.006-0.002,0.009-0.003
	c-9.073,2.93-16.96,7.361-22.494,11.953C90.949,243.509,90.979,241.792,92.576,239.99z M95.209,254.42
	c7.898-7.798,24.24-15.55,40.995-15.55l1.358,0.022c16.549,0.43,31.785,9.342,39.453,17.508c5.94,6.317,4.452,10.348,2.134,16.648
	l-12.841,40.711c-1.704,4.605-3.17,8.59-7.929,11.721c-5.427,3.577-12.802,6.002-21.1,6.04h-0.238
	c-8.312,0-14.376-2.717-19.311-6.754c-4.959-4.053-7.416-10.162-10.025-16.633l-14.008-34.831
	C90.496,265.351,88.984,260.553,95.209,254.42z M100.098,311.097c2.448,6.087,4.966,12.35,9.74,17.424l-3.737,1.596
	c-6.524,2.709-14.238,5.351-18.913,4.007c-4.252-1.236-7.837-5.749-11.62-10.576l-15.835-28.891
	c-3.999-6.832-5.334-9.956-2.349-13.325c3.899-4.397,14.361-9.081,25.82-13.624c0.653,3.031,1.813,5.909,2.879,8.558
	L100.098,311.097z M69.135,328.527c-4.336,1.666-8.389,3.416-12.035,4.997c-6.417,2.771-12.473,5.388-15.396,5.388l-0.254-0.007
	c-1.458-3.416-2.41-13.148,1.627-23.042c2.388-5.849,6.063-10.738,10.969-14.615l14.499,26.45l0.375,0.568
	C68.989,328.352,69.058,328.443,69.135,328.527z M86.746,249.961c-0.086,0.063-0.162,0.131-0.246,0.195v-0.713
	C86.582,249.616,86.662,249.79,86.746,249.961z M15.031,349.202l38.803-82.959h11.869c-6.371,3.073-11.535,6.229-14.505,9.576
	c-5.503,6.218-3.868,12.68-1.182,18.115c-7.875,5.871-12.188,12.94-14.552,18.712c-5.311,13.011-3.569,25.376-1.221,30.111
	c0.806,1.635,2.871,4.367,7.591,4.367c4.621,0,10.807-2.671,18.628-6.056c4.467-1.927,9.257-3.999,14.299-5.825
	c2.925,3.055,6.202,5.587,10.262,6.762c1.666,0.483,3.478,0.729,5.381,0.729c6.063,0,12.987-2.54,18.958-5.026l3.915-1.666l4.1-1.75
	c6.024,3.309,11.789,5.449,19.802,5.449v-0.007h0.284c8.243-0.039,15.236-2.058,21.845-5.289l5.396,2.226l1.366,0.576
	c7.146,3.04,12.788,5.427,18.053,5.427c1.289,0,2.533-0.146,3.699-0.438c4.36-1.083,7.822-4.083,11.053-8.06
	c5.519,1.919,10.777,4.168,15.65,6.24c7.938,3.385,14.208,6.056,18.821,6.056c4.728,0,6.701-2.732,7.453-4.367
	c2.187-4.735,3.522-17.101-2.218-30.104c-0.116-0.263-0.242-0.532-0.366-0.8c0,0.001,0,0.001,0,0.001
	c1.369,0.171,2.796,0.276,4.331,0.276v-0.008h0.247c1.364-0.006,2.678-0.094,3.968-0.219c-0.212,0.471-0.416,0.938-0.603,1.394
	c-5.312,13.011-3.569,25.376-1.221,30.111c0.806,1.635,2.87,4.367,7.591,4.367c4.62,0,10.807-2.671,18.628-6.056
	c4.467-1.927,9.257-3.999,14.3-5.825c2.925,3.055,6.202,5.587,10.262,6.762c1.666,0.483,3.478,0.729,5.381,0.729
	c6.063,0,12.987-2.54,18.958-5.026l3.915-1.666l4.099-1.75c6.025,3.309,11.79,5.449,19.802,5.449v-0.007h0.285
	c8.243-0.039,15.236-2.058,21.844-5.289l5.396,2.226l1.366,0.576c7.146,3.04,12.788,5.427,18.054,5.427
	c1.289,0,2.532-0.146,3.699-0.438c4.359-1.083,7.821-4.083,11.053-8.06c5.519,1.919,10.776,4.168,15.65,6.24
	c7.937,3.385,14.207,6.056,18.82,6.056c4.728,0,6.701-2.732,7.453-4.367c2.187-4.735,3.522-17.101-2.219-30.104
	c-0.116-0.263-0.241-0.531-0.364-0.799c1.367,0.171,2.794,0.276,4.329,0.276v-0.008h0.248c1.364-0.006,2.677-0.094,3.968-0.219
	c-0.212,0.471-0.416,0.938-0.603,1.394c-5.312,13.011-3.569,25.376-1.221,30.111c0.806,1.635,2.87,4.367,7.591,4.367
	c4.621,0,10.807-2.671,18.629-6.056c4.467-1.927,9.257-3.999,14.299-5.825c2.925,3.055,6.202,5.587,10.263,6.762
	c1.666,0.483,3.478,0.729,5.381,0.729c6.063,0,12.986-2.54,18.958-5.026l3.914-1.666l4.1-1.75
	c6.024,3.309,11.789,5.449,19.803,5.449v-0.007h0.284c8.243-0.039,15.235-2.058,21.845-5.289l5.396,2.226l1.366,0.576
	c7.146,3.04,12.787,5.427,18.053,5.427c1.289,0,2.533-0.146,3.699-0.438c4.359-1.083,7.822-4.083,11.053-8.06
	c5.519,1.919,10.777,4.168,15.65,6.24c7.938,3.385,14.207,6.056,18.82,6.056c4.729,0,6.701-2.732,7.453-4.367
	c2.188-4.735,3.522-17.101-2.219-30.104c-2.586-5.855-7.223-13.041-15.496-18.958c1.957-6.202,2.21-12.58-2.748-18.544
	c-2.493-3.003-6.356-5.742-11.033-8.257h15.475l38.804,82.959H15.031z"/>
</svg>
