<?xml version="1.0" encoding="utf-8"?>
<!-- Generator: Adobe Illustrator 16.0.0, SVG Export Plug-In . SVG Version: 6.00 Build 0)  -->
<!DOCTYPE svg PUBLIC "-//W3C//DTD SVG 1.1//EN" "http://www.w3.org/Graphics/SVG/1.1/DTD/svg11.dtd">
<svg version="1.1" id="Capa_1" xmlns="http://www.w3.org/2000/svg" xmlns:xlink="http://www.w3.org/1999/xlink" x="0px" y="0px"
	 width="800px" height="800px" viewBox="0 0 800 800" enable-background="new 0 0 800 800" xml:space="preserve">
<circle fill="#E96000" cx="400" cy="399.057" r="372.442"/>
<path fill="#FFFFFF" d="M433.375,700.497c-6.54,0-13.094-1.294-19.242-3.912c-16.638-7.08-25.034-23.872-43.432-60.664
	l-64.897-129.798l0.001,0.001l-0.028-0.056c-1.601-3.201-2.984-5.966-3.519-6.659c-0.49-0.636-1.052-1.197-1.68-1.682
	c-0.694-0.535-3.462-1.919-6.667-3.521l-129.815-64.91c-36.812-18.403-53.613-26.803-60.699-43.45
	c-6.125-14.386-5.006-30.999,2.995-44.436c9.256-15.542,27.032-21.612,65.981-34.912l359.011-122.589
	c33.257-11.354,49.942-17.051,66.054-11.359c0.42,0.148,0.838,0.302,1.252,0.461l3.006-3.005l13.058,13.062
	c0.746,0.701,1.47,1.425,2.17,2.171l13.052,13.057l-3.003,3.001c0.158,0.413,0.312,0.83,0.46,1.249
	c5.694,16.118-0.005,32.806-11.359,66.053l-122.589,359.01c-13.304,38.961-19.371,56.73-34.912,65.983
	C450.875,698.172,442.138,700.497,433.375,700.497z M430.157,659.925c2.484,0.935,5.279,0.747,7.617-0.514
	c3.983-4.104,10.72-23.832,17.846-44.702l122.599-359.037c0.986-2.89,1.965-5.755,2.91-8.549L341.031,487.134
	c0.17,0.34,0.344,0.688,0.522,1.044l0.029,0.057l64.881,129.765C416.338,637.75,425.66,656.393,430.157,659.925z M140.058,369.822
	c3.532,4.502,22.189,13.829,41.926,23.696l129.764,64.884c0.328,0.164,0.649,0.325,0.963,0.482l240.104-240.017
	c-2.776,0.939-5.622,1.911-8.493,2.891L185.299,344.352c-20.883,7.131-40.625,13.872-44.729,17.858
	C139.31,364.545,139.122,367.338,140.058,369.822z"/>
</svg>
