<?xml version="1.0" encoding="utf-8"?>
<!-- Generator: Adobe Illustrator 16.0.0, SVG Export Plug-In . SVG Version: 6.00 Build 0)  -->
<!DOCTYPE svg PUBLIC "-//W3C//DTD SVG 1.1//EN" "http://www.w3.org/Graphics/SVG/1.1/DTD/svg11.dtd">
<svg version="1.1" id="Capa_1" xmlns="http://www.w3.org/2000/svg" xmlns:xlink="http://www.w3.org/1999/xlink" x="0px" y="0px"
	 width="48px" height="48px" viewBox="0 0 48 48" enable-background="new 0 0 48 48" xml:space="preserve">
<path fill="none" d="M0,0h48v48H0V0z M36.62,12L31.1,22L36.62,12z"/>
<path d="M14,36c-2.21,0-3.98,1.79-3.98,4s1.77,4,3.98,4s4-1.79,4-4S16.21,36,14,36z M34,36c-2.21,0-3.98,1.79-3.98,4s1.771,4,3.98,4
	s4-1.79,4-4S36.21,36,34,36z M14.35,29.5c0-0.09,0.02-0.17,0.06-0.24l1.8-3.26h14.899c1.5,0,2.811-0.83,3.5-2.06L42.33,9.92L38.83,8
	h-0.01l-2.211,4L31.1,22H17.07l-0.26-0.54L12.32,12l-1.9-4L8.53,4H2v4h4l7.2,15.17l-2.71,4.9C10.18,28.65,10,29.3,10,30
	c0,2.21,1.79,4,4,4h24v-4H14.85C14.57,30,14.35,29.78,14.35,29.5z"/>
</svg>
