<?xml version="1.0" encoding="utf-8"?>
<!-- Generator: Adobe Illustrator 16.0.0, SVG Export Plug-In . SVG Version: 6.00 Build 0)  -->
<!DOCTYPE svg PUBLIC "-//W3C//DTD SVG 1.1//EN" "http://www.w3.org/Graphics/SVG/1.1/DTD/svg11.dtd">
<svg version="1.1" id="Capa_1" xmlns="http://www.w3.org/2000/svg" xmlns:xlink="http://www.w3.org/1999/xlink" x="0px" y="0px"
	 width="800px" height="800px" viewBox="0 0 800 800" enable-background="new 0 0 800 800" xml:space="preserve">
<circle fill="#A20E00" cx="400" cy="400" r="400"/>
<g>
	<path fill="#FFFFFF" d="M215.692,622.176c-21.237,0.001-38.87-17.003-39.519-38.344l-0.006-0.38V347.414h25v235.819
		c0.327,7.893,6.984,14.11,14.888,13.938l0.305-0.004h288.102v25H216.498C216.228,622.174,215.96,622.176,215.692,622.176z"/>
	<rect x="545.502" y="348.983" fill="#FFFFFF" width="25" height="101.634"/>
	<polygon fill="#FFFFFF" points="439.697,609.207 414.697,609.207 414.697,464.133 332.802,464.133 332.802,609.207 
		307.802,609.207 307.802,439.133 439.697,439.133 	"/>
	<path fill="#FFFFFF" d="M419.488,372.875l-0.961-0.071c-16.84-1.238-32.541-7.584-45.315-18.149
		c-14.428,11.731-32.38,18.137-51.097,18.137c-18.498,0-36.431-6.389-50.724-17.82c-13.334,9.737-29.355,14.996-46.168,14.996
		c-0.001,0-0.001,0-0.002,0c-3.881,0-7.795-0.292-11.636-0.868l-0.173-0.027c-42.246-6.938-59.094-33.394-65.788-54.366
		c-6.963-21.813-4.223-41.957-4.103-42.803l0.255-1.801l43.42-94.7c3.255-8.249,11.296-13.751,20.204-13.755h330.664
		c8.909,0.004,16.946,5.501,20.205,13.744l43.918,95.404l0.273,1.665c0.776,4.719,1.162,9.535,1.146,14.315
		c-0.155,47.456-38.889,86.064-86.343,86.064l-0.677-0.008c-16.102-0.552-31.703-6.472-44.15-16.541
		c-15.81,9.358-33.592,15.026-51.989,16.508L419.488,372.875z M517.252,347.838h0.012c33.714,0,61.232-27.431,61.343-61.147
		c0.01-2.861-0.184-5.74-0.574-8.581l-42.104-91.463H209.542l-41.426,90.351c-0.358,4.419-0.891,17.427,3.556,30.823
		c6.761,20.37,22.137,32.672,45.7,36.567c2.592,0.384,5.232,0.579,7.849,0.579c14.227,0,27.62-5.525,37.713-15.557l9.19-9.135
		l8.799,9.513c10.582,11.441,25.596,18.003,41.191,18.003c14.151,0,27.67-5.296,38.066-14.912c1.312-1.213,2.583-2.508,3.78-3.85
		l9.407-10.542l9.317,10.621c9.462,10.787,22.475,17.398,36.733,18.685c16.973-1.542,33.253-7.576,47.138-17.479l8.984-6.409
		l7.473,8.122C491.808,341.585,504.278,347.341,517.252,347.838z"/>
	<rect x="155.896" y="261.158" fill="#FFFFFF" width="434.692" height="25"/>
	<rect x="259.708" y="174.146" fill="#FFFFFF" width="25" height="99.511"/>
	<rect x="361.25" y="174.146" fill="#FFFFFF" width="25" height="99.511"/>
	<rect x="462.515" y="174.146" fill="#FFFFFF" width="25" height="99.511"/>
	<path fill="#FFFFFF" d="M558.002,640.354c-55.757,0-101.118-45.361-101.118-101.118s45.361-101.118,101.118-101.118
		s101.119,45.361,101.119,101.118S613.759,640.354,558.002,640.354z M558.002,463.117c-41.972,0-76.118,34.146-76.118,76.118
		s34.146,76.118,76.118,76.118c41.973,0,76.119-34.146,76.119-76.118S599.975,463.117,558.002,463.117z"/>
	<polygon fill="#FFFFFF" points="549.38,593.891 509.297,563.609 524.367,543.662 543.915,558.43 588.894,495.162 609.269,509.647 	
		"/>
</g>
</svg>
