<?xml version="1.0" encoding="utf-8"?>
<!-- Generator: Adobe Illustrator 16.0.0, SVG Export Plug-In . SVG Version: 6.00 Build 0)  -->
<!DOCTYPE svg PUBLIC "-//W3C//DTD SVG 1.1//EN" "http://www.w3.org/Graphics/SVG/1.1/DTD/svg11.dtd">
<svg version="1.1" id="Capa_1" xmlns="http://www.w3.org/2000/svg" xmlns:xlink="http://www.w3.org/1999/xlink" x="0px" y="0px"
	 width="800px" height="800px" viewBox="0 0 800 800" enable-background="new 0 0 800 800" xml:space="preserve">
<circle fill="#E9CC00" cx="400" cy="399.057" r="372.442"/>
<path fill="#FFFFFF" d="M474.278,611.843c-15.495,0-33.016-8.761-64.991-24.747L161.448,463.178
	c-33.221-16.609-49.896-24.946-57.531-41.044c-0.334-0.705-0.652-1.416-0.953-2.131h-4.029v-18.563
	c-0.027-0.958-0.027-1.916,0-2.874v-18.563h4.029c0.301-0.714,0.618-1.425,0.953-2.129c7.635-16.099,24.31-24.436,57.532-41.045
	l247.467-123.734c38.574-19.289,56.178-28.091,74.462-23.723c15.799,3.773,29.055,14.936,35.46,29.861
	c7.414,17.267,1.737,36.107-10.699,77.386l-28.251,93.769c-1.107,3.681-1.907,6.34-2.025,7.338
	c-0.031,0.268-0.054,0.537-0.066,0.809v1.113c0.013,0.267,0.034,0.533,0.064,0.797c0.114,0.984,0.909,3.649,2.01,7.339l28.65,95.907
	c12.311,41.212,17.93,60.021,10.498,77.265c-6.427,14.902-19.684,26.038-35.464,29.794
	C480.477,611.482,477.418,611.843,474.278,611.843z M164.66,420.003c4.708,2.414,9.715,4.917,14.676,7.397l247.81,123.903
	c21.079,10.539,40.985,20.492,47.096,20.492c0.082,0,0.162-0.002,0.239-0.006c3.41-0.873,6.274-3.279,7.725-6.487
	c1.274-5.683-5.181-27.292-12.012-50.162l-28.421-95.138H164.66z M164.66,380.003h276.58c0.111-0.37,0.225-0.749,0.342-1.138
	l0.038-0.125l28.211-93.635c6.908-22.931,13.429-44.575,12.17-50.276c-1.446-3.216-4.312-5.627-7.725-6.505
	c-5.854-0.28-26.063,9.842-47.473,20.547L179.337,372.605C174.376,375.085,169.369,377.589,164.66,380.003z M701.066,546.58H581.954
	v-40h119.111V546.58z M669.42,420.003h-87.466v-40h87.466V420.003z M653.599,293.425h-71.645v-40h71.645V293.425z"/>
</svg>
