<?xml version="1.0" encoding="utf-8"?>
<!-- Generator: Adobe Illustrator 16.0.0, SVG Export Plug-In . SVG Version: 6.00 Build 0)  -->
<!DOCTYPE svg PUBLIC "-//W3C//DTD SVG 1.1//EN" "http://www.w3.org/Graphics/SVG/1.1/DTD/svg11.dtd">
<svg version="1.1" id="Capa_1" xmlns="http://www.w3.org/2000/svg" xmlns:xlink="http://www.w3.org/1999/xlink" x="0px" y="0px"
	 width="128px" height="128px" viewBox="0 0 128 128" enable-background="new 0 0 128 128" xml:space="preserve">
<circle fill="#0081BF" cx="64" cy="64" r="63.404"/>
<path fill="#FFFFFF" d="M53.667,57.798H64c1.096,0,2.148-0.436,2.923-1.211c0.775-0.775,1.211-1.826,1.211-2.922
	c0-1.097-0.436-2.148-1.211-2.923c-0.774-0.775-1.827-1.21-2.923-1.21h-4.133v-2.067c0-1.096-0.435-2.148-1.21-2.923
	s-1.827-1.21-2.923-1.21s-2.147,0.436-2.923,1.21c-0.775,0.775-1.21,1.827-1.21,2.923v2.273c-2.511,0.51-4.744,1.935-6.264,3.998
	c-1.52,2.063-2.219,4.617-1.961,7.167c0.257,2.549,1.453,4.913,3.354,6.63c1.902,1.718,4.375,2.667,6.937,2.664H57.8
	c0.548,0,1.074,0.219,1.462,0.605c0.387,0.388,0.605,0.913,0.605,1.461c0,0.549-0.218,1.075-0.605,1.463
	c-0.388,0.387-0.914,0.605-1.462,0.605H47.467c-1.096,0-2.148,0.435-2.923,1.21c-0.775,0.774-1.21,1.826-1.21,2.922
	c0,1.097,0.436,2.147,1.21,2.923s1.827,1.211,2.923,1.211H51.6v2.066c0,1.097,0.436,2.147,1.21,2.923
	c0.775,0.775,1.827,1.211,2.923,1.211s2.147-0.436,2.923-1.211s1.21-1.826,1.21-2.923v-2.273c2.511-0.51,4.744-1.935,6.264-3.998
	c1.52-2.063,2.218-4.616,1.961-7.166c-0.258-2.55-1.453-4.913-3.355-6.631c-1.901-1.718-4.374-2.667-6.937-2.665h-4.133
	c-0.548,0-1.074-0.218-1.461-0.605c-0.388-0.388-0.605-0.914-0.605-1.462c0-0.548,0.218-1.074,0.605-1.461
	C52.593,58.016,53.119,57.798,53.667,57.798z M101.2,63.998H88.8v-37.2c0.003-0.729-0.187-1.445-0.549-2.076
	c-0.363-0.632-0.888-1.156-1.517-1.52c-0.629-0.363-1.342-0.554-2.068-0.554c-0.725,0-1.438,0.191-2.066,0.554L70.2,30.311
	l-12.4-7.109c-0.628-0.363-1.341-0.554-2.066-0.554s-1.438,0.191-2.067,0.554l-12.4,7.109l-12.4-7.109
	c-0.628-0.363-1.341-0.554-2.067-0.554c-0.725,0-1.438,0.191-2.066,0.554c-0.631,0.364-1.154,0.888-1.517,1.52
	c-0.363,0.631-0.552,1.348-0.55,2.076v66.134c0,3.288,1.307,6.442,3.632,8.768c2.325,2.325,5.479,3.633,8.768,3.633h57.867
	c3.289,0,6.442-1.308,8.768-3.633c2.326-2.325,3.633-5.479,3.633-8.768v-24.8c0-1.097-0.436-2.148-1.211-2.923
	C103.348,64.434,102.296,63.998,101.2,63.998z M35.066,97.063c-1.096,0-2.147-0.434-2.922-1.21c-0.775-0.774-1.21-1.826-1.21-2.922
	V33.948L39.2,38.66c0.638,0.333,1.347,0.507,2.066,0.507c0.72,0,1.429-0.174,2.067-0.507l12.4-7.109l12.4,7.109
	c0.638,0.333,1.347,0.507,2.066,0.507s1.429-0.174,2.066-0.507l8.268-4.712v58.983c0.011,1.41,0.262,2.807,0.743,4.132H35.066z
	 M97.066,92.932c0,1.096-0.435,2.147-1.21,2.922c-0.775,0.776-1.826,1.21-2.923,1.21s-2.147-0.434-2.923-1.21
	c-0.774-0.774-1.211-1.826-1.211-2.922V72.264h8.267V92.932z"/>
</svg>
