<?xml version="1.0" encoding="utf-8"?>
<!-- Generator: Adobe Illustrator 16.0.0, SVG Export Plug-In . SVG Version: 6.00 Build 0)  -->
<!DOCTYPE svg PUBLIC "-//W3C//DTD SVG 1.1//EN" "http://www.w3.org/Graphics/SVG/1.1/DTD/svg11.dtd">
<svg version="1.1" id="Capa_1" xmlns="http://www.w3.org/2000/svg" xmlns:xlink="http://www.w3.org/1999/xlink" x="0px" y="0px"
	 width="800px" height="800px" viewBox="0 0 800 800" enable-background="new 0 0 800 800" xml:space="preserve">
<circle fill="#3138C9" cx="400" cy="400" r="372.442"/>
<g id="File__x2F__Note_x5F_Edit">
	<path fill="#FFFFFF" d="M489.584,632H263.305c-28.58,0-44.322,0-58.669-7.313c-12.696-6.466-22.837-16.609-29.32-29.332
		C168,580.999,168,565.238,168,536.627V310.493c0-28.622,0-44.388,7.315-58.745c6.475-12.708,16.615-22.848,29.324-29.323
		c14.354-7.315,30.121-7.315,58.744-7.315h85.955v40h-85.955c-21.692,0-34.785,0-40.584,2.955
		c-5.133,2.615-9.229,6.71-11.843,11.843C208,275.708,208,288.801,208,310.493v226.134c0,21.682,0,34.769,2.955,40.566
		c2.621,5.146,6.715,9.243,11.839,11.853C228.589,592,241.656,592,263.305,592h226.279c21.637,0,34.696,0,40.484-2.95
		c5.077-2.586,9.29-6.797,11.869-11.86c2.951-5.791,2.951-18.854,2.951-40.494v-86.028h40v86.028c0,28.569,0,44.307-7.31,58.652
		c-6.385,12.533-16.809,22.954-29.351,29.342C533.888,632,518.152,632,489.584,632z M408.284,490.667h-98.951v-98.951l232-232
		l98.951,98.95L408.284,490.667z M349.334,450.667h42.382l121.333-121.334l-42.382-42.383L349.334,408.284V450.667z
		 M498.951,258.666l42.382,42.383l42.383-42.383l-42.383-42.382L498.951,258.666z"/>
</g>
</svg>
