<?xml version="1.0" encoding="utf-8"?>
<!-- Generator: Adobe Illustrator 16.0.0, SVG Export Plug-In . SVG Version: 6.00 Build 0)  -->
<!DOCTYPE svg PUBLIC "-//W3C//DTD SVG 1.1//EN" "http://www.w3.org/Graphics/SVG/1.1/DTD/svg11.dtd">
<svg version="1.1" id="Capa_1" xmlns="http://www.w3.org/2000/svg" xmlns:xlink="http://www.w3.org/1999/xlink" x="0px" y="0px"
	 width="" height="" viewBox="0 0 312.968 156.484" enable-background="new 0 0 312.968 156.484"
	 xml:space="preserve">
<circle fill="#FFFFFF" cx="33.261" cy="101.631" r="6.259"/>
<g>
	<path fill="#FFFFFF" d="M100.855,86.242h-2.748v-5.718h-5.361v5.718h-2.749V72.9h2.749v5.406h5.361V72.9h2.748V86.242z"/>
	<path fill="#FFFFFF" d="M110.955,83.493h-4.82l-0.917,2.749h-2.923l4.967-13.342h2.547l4.994,13.342h-2.923L110.955,83.493z
		 M106.877,81.266h3.335l-1.677-4.994L106.877,81.266z"/>
	<path fill="#FFFFFF" d="M126.332,81.798c-0.104,1.436-0.635,2.566-1.59,3.391c-0.957,0.825-2.217,1.237-3.781,1.237
		c-1.71,0-3.056-0.576-4.036-1.727c-0.98-1.152-1.471-2.732-1.471-4.742V79.14c0-1.283,0.226-2.413,0.679-3.391
		c0.451-0.977,1.098-1.727,1.938-2.25s1.816-0.784,2.928-0.784c1.539,0,2.779,0.413,3.721,1.237s1.484,1.982,1.631,3.473h-2.749
		c-0.067-0.861-0.307-1.486-0.72-1.874c-0.412-0.388-1.039-0.582-1.883-0.582c-0.916,0-1.602,0.329-2.057,0.985
		s-0.689,1.675-0.701,3.056v1.008c0,1.442,0.219,2.496,0.654,3.162c0.438,0.666,1.126,0.999,2.066,0.999
		c0.85,0,1.483-0.194,1.902-0.582c0.418-0.388,0.658-0.988,0.719-1.801H126.332z"/>
	<path fill="#FFFFFF" d="M136.164,80.46h-5.278v3.574h6.194v2.208h-8.943V72.9h8.926v2.227h-6.177v3.18h5.278V80.46z
		 M133.296,69.298h2.887l-2.538,2.841h-2.154L133.296,69.298z"/>
	<path fill="#FFFFFF" d="M152.861,75.126h-4.088v11.116h-2.749V75.126h-4.032V72.9h10.869V75.126z"/>
	<path fill="#FFFFFF" d="M164.526,72.9v8.788c0,1.46-0.457,2.615-1.37,3.464c-0.914,0.849-2.161,1.273-3.744,1.273
		c-1.557,0-2.795-0.412-3.711-1.237s-1.383-1.958-1.402-3.4V72.9h2.75v8.806c0,0.874,0.209,1.511,0.627,1.911
		c0.419,0.4,0.998,0.6,1.736,0.6c1.547,0,2.331-0.812,2.355-2.438V72.9H164.526z"/>
	<path fill="#FFFFFF" d="M92.746,104.062v4.701h-2.749V95.421h5.205c1.002,0,1.883,0.183,2.644,0.55
		c0.761,0.366,1.346,0.887,1.755,1.562c0.409,0.675,0.614,1.443,0.614,2.305c0,1.308-0.447,2.338-1.343,3.093
		c-0.896,0.754-2.134,1.131-3.716,1.131H92.746z M92.746,101.835h2.456c0.727,0,1.281-0.171,1.663-0.513s0.572-0.831,0.572-1.466
		c0-0.654-0.191-1.182-0.576-1.585c-0.386-0.403-0.917-0.611-1.596-0.623h-2.52V101.835z"/>
	<path fill="#FFFFFF" d="M110.13,102.981h-5.278v3.574h6.195v2.208h-8.944V95.421h8.925v2.227h-6.176v3.18h5.278V102.981z"/>
	<path fill="#FFFFFF" d="M112.659,108.763V95.421h4.105c1.173,0,2.222,0.264,3.147,0.792s1.648,1.28,2.168,2.254
		c0.519,0.975,0.778,2.082,0.778,3.322v0.614c0,1.24-0.255,2.343-0.765,3.308c-0.511,0.965-1.23,1.714-2.158,2.245
		c-0.93,0.532-1.977,0.801-3.144,0.807H112.659z M115.408,97.647v8.907h1.328c1.076,0,1.897-0.351,2.466-1.054
		c0.567-0.703,0.858-1.708,0.87-3.015v-0.706c0-1.356-0.281-2.384-0.843-3.083s-1.384-1.049-2.465-1.049H115.408z"/>
	<path fill="#FFFFFF" d="M127.779,108.763h-2.75V95.421h2.75V108.763z"/>
	<path fill="#FFFFFF" d="M130.327,108.763V95.421h4.105c1.173,0,2.222,0.264,3.147,0.792s1.648,1.28,2.168,2.254
		c0.519,0.975,0.778,2.082,0.778,3.322v0.614c0,1.24-0.255,2.343-0.765,3.308c-0.511,0.965-1.23,1.714-2.158,2.245
		c-0.93,0.532-1.977,0.801-3.144,0.807H130.327z M133.076,97.647v8.907h1.328c1.076,0,1.897-0.351,2.466-1.054
		c0.567-0.703,0.858-1.708,0.87-3.015v-0.706c0-1.356-0.281-2.384-0.843-3.083s-1.384-1.049-2.465-1.049H133.076z"/>
	<path fill="#FFFFFF" d="M153.484,102.395c0,1.313-0.232,2.465-0.697,3.455s-1.129,1.753-1.993,2.291s-1.855,0.806-2.974,0.806
		c-1.105,0-2.092-0.266-2.96-0.797c-0.867-0.532-1.539-1.291-2.016-2.277s-0.718-2.122-0.724-3.404v-0.66
		c0-1.313,0.236-2.469,0.709-3.468c0.475-0.999,1.143-1.766,2.008-2.3c0.864-0.534,1.853-0.802,2.965-0.802
		c1.111,0,2.1,0.268,2.964,0.802c0.864,0.535,1.533,1.301,2.007,2.3s0.711,2.152,0.711,3.459V102.395z M150.697,101.79
		c0-1.399-0.25-2.462-0.751-3.189s-1.216-1.09-2.144-1.09c-0.924,0-1.635,0.359-2.136,1.077s-0.755,1.77-0.761,3.157v0.651
		c0,1.362,0.25,2.419,0.752,3.17c0.5,0.751,1.221,1.127,2.162,1.127c0.922,0,1.631-0.362,2.126-1.086
		c0.495-0.724,0.745-1.779,0.751-3.167V101.79z"/>
</g>
<g>
	<path fill="#FFFFFF" d="M66.921,107.813H54.776V61l-14.497,4.496v-9.875l25.339-9.077h1.303V107.813z"/>
</g>
<path fill="#FFFFFF" d="M276.13,53.155l-3.681,18.357c-1.965,9.744-10.58,16.811-20.49,16.811H204.16
	c1.757,4.935,6.398,8.364,11.836,8.364h39.475c2.301,0,4.182,1.881,4.182,4.181c0,2.299-1.881,4.182-4.182,4.182h-39.475
	c-10.58,0-19.529-7.945-20.783-18.483l-5.771-48.927c-0.252-2.091-2.049-3.68-4.141-3.68h-5.102c-2.299,0-4.182-1.882-4.182-4.182
	s1.883-4.182,4.182-4.182h5.102c6.357,0,11.71,4.768,12.463,11.081l0.166,1.464h15.724c2.301,0,4.182,1.881,4.182,4.182
	c0,2.3-1.881,4.182-4.182,4.182h-14.72l3.932,33.455h49.094c5.938,0,11.123-4.224,12.294-10.079l3.681-18.358
	c0.249-1.212-0.085-2.508-0.879-3.471c-0.795-0.962-1.965-1.547-3.221-1.547h-16.727c-2.299,0-4.182-1.882-4.182-4.182
	c0-2.3,1.883-4.182,4.182-4.182h16.727c3.764,0,7.319,1.672,9.702,4.6C275.92,45.669,276.882,49.475,276.13,53.155z M205.29,109.232
	c-4.601,0-8.363,3.764-8.363,8.363c0,4.601,3.763,8.364,8.363,8.364s8.363-3.764,8.363-8.364
	C213.653,112.996,209.891,109.232,205.29,109.232z M247.107,109.232c-4.6,0-8.363,3.764-8.363,8.363
	c0,4.601,3.764,8.364,8.363,8.364s8.363-3.764,8.363-8.364C255.471,112.996,251.707,109.232,247.107,109.232z M214.783,55.915
	c-1.59,1.673-1.464,4.349,0.209,5.896l6.523,6.105c2.467,2.467,5.688,3.68,8.906,3.68c3.221,0,6.357-1.212,8.74-3.596l6.648-6.189
	c1.674-1.589,1.757-4.223,0.21-5.896c-1.589-1.673-4.224-1.798-5.897-0.209l-5.52,5.144v-31.07c0-2.3-1.881-4.182-4.182-4.182
	c-2.3,0-4.182,1.881-4.182,4.182v31.07l-5.52-5.144c-1.674-1.589-4.35-1.463-5.896,0.209H214.783z"/>
<g>
</g>
<g>
</g>
<g>
</g>
<g>
</g>
<g>
</g>
<g>
</g>
</svg>
