<?xml version="1.0" encoding="utf-8"?>
<!-- Generator: Adobe Illustrator 16.0.0, SVG Export Plug-In . SVG Version: 6.00 Build 0)  -->
<!DOCTYPE svg PUBLIC "-//W3C//DTD SVG 1.1//EN" "http://www.w3.org/Graphics/SVG/1.1/DTD/svg11.dtd">
<svg version="1.1" id="Capa_1" xmlns="http://www.w3.org/2000/svg" xmlns:xlink="http://www.w3.org/1999/xlink" x="0px" y="0px"
	 width="" height="auto" viewBox="0 0 312.968 156.484" enable-background="new 0 0 312.968 156.484"
	 xml:space="preserve">
<circle fill="#FFFFFF" cx="33.261" cy="98.631" r="6.259"/>
<g>
	<path fill="#FFFFFF" d="M109.936,77.357h-2.189v4.885h-2.749V68.899h4.958c1.576,0,2.791,0.351,3.646,1.054
		s1.283,1.695,1.283,2.979c0,0.91-0.197,1.669-0.592,2.277c-0.394,0.607-0.99,1.092-1.791,1.452l2.887,5.452v0.129h-2.951
		L109.936,77.357z M107.746,75.131h2.218c0.69,0,1.225-0.176,1.604-0.527s0.568-0.835,0.568-1.452c0-0.63-0.179-1.124-0.536-1.485
		c-0.357-0.359-0.906-0.54-1.645-0.54h-2.209V75.131z"/>
	<path fill="#FFFFFF" d="M125.002,76.459h-5.279v3.574h6.195v2.209h-8.943V68.899h8.925v2.227h-6.177v3.18h5.279V76.459z"/>
	<path fill="#FFFFFF" d="M137.758,71.126h-4.087v11.116h-2.749V71.126h-4.032v-2.227h10.868V71.126z"/>
	<path fill="#FFFFFF" d="M142.248,82.242h-2.75V68.899h2.75V82.242z"/>
	<path fill="#FFFFFF" d="M149.734,77.357h-2.189v4.885h-2.75V68.899h4.958c1.576,0,2.792,0.351,3.647,1.054s1.283,1.695,1.283,2.979
		c0,0.91-0.197,1.669-0.592,2.277c-0.395,0.607-0.991,1.092-1.791,1.452l2.887,5.452v0.129h-2.951L149.734,77.357z M147.545,75.131
		h2.217c0.69,0,1.225-0.176,1.604-0.527s0.568-0.835,0.568-1.452c0-0.63-0.178-1.124-0.535-1.485
		c-0.357-0.359-0.906-0.54-1.646-0.54h-2.208V75.131z"/>
	<path fill="#FFFFFF" d="M164.305,79.492h-4.82l-0.916,2.75h-2.924l4.967-13.343h2.549l4.994,13.343h-2.924L164.305,79.492z
		 M160.227,77.266h3.336l-1.677-4.994L160.227,77.266z M162.454,65.325h2.886l-2.537,2.841h-2.154L162.454,65.325z"/>
	<path fill="#FFFFFF" d="M176.822,77.541v4.701h-2.748V68.899h5.205c1.002,0,1.883,0.183,2.643,0.55
		c0.762,0.366,1.346,0.887,1.756,1.563c0.408,0.675,0.613,1.443,0.613,2.305c0,1.307-0.447,2.338-1.342,3.093
		c-0.896,0.755-2.135,1.132-3.717,1.132H176.822z M176.822,75.314h2.457c0.727,0,1.281-0.172,1.662-0.514
		c0.383-0.342,0.573-0.831,0.573-1.467c0-0.653-0.192-1.182-0.577-1.585s-0.916-0.61-1.595-0.623h-2.521V75.314z"/>
	<path fill="#FFFFFF" d="M197.139,75.873c0,1.313-0.232,2.465-0.696,3.455c-0.464,0.989-1.128,1.753-1.993,2.291
		c-0.864,0.537-1.855,0.806-2.974,0.806c-1.105,0-2.093-0.266-2.96-0.797c-0.867-0.532-1.539-1.29-2.016-2.277
		s-0.719-2.122-0.725-3.404v-0.66c0-1.313,0.237-2.47,0.711-3.468c0.473-1,1.143-1.766,2.007-2.301
		c0.864-0.534,1.853-0.802,2.964-0.802c1.112,0,2.101,0.268,2.965,0.802c0.864,0.535,1.533,1.301,2.007,2.301
		c0.474,0.998,0.71,2.151,0.71,3.459V75.873z M194.354,75.268c0-1.398-0.251-2.461-0.752-3.188s-1.215-1.091-2.145-1.091
		c-0.922,0-1.634,0.359-2.135,1.077s-0.754,1.771-0.761,3.157v0.65c0,1.362,0.251,2.419,0.751,3.17
		c0.502,0.752,1.223,1.128,2.163,1.128c0.923,0,1.632-0.362,2.126-1.086c0.495-0.724,0.746-1.779,0.752-3.167V75.268z"/>
	<path fill="#FFFFFF" d="M204.076,77.357h-2.19v4.885h-2.749V68.899h4.957c1.576,0,2.793,0.351,3.647,1.054
		c0.855,0.703,1.283,1.695,1.283,2.979c0,0.91-0.197,1.669-0.591,2.277c-0.395,0.607-0.992,1.092-1.792,1.452l2.887,5.452v0.129
		h-2.95L204.076,77.357z M201.886,75.131h2.218c0.689,0,1.225-0.176,1.604-0.527s0.568-0.835,0.568-1.452
		c0-0.63-0.179-1.124-0.536-1.485c-0.357-0.359-0.905-0.54-1.646-0.54h-2.208V75.131z"/>
	<path fill="#FFFFFF" d="M113.024,98.98h-5.278v3.574h6.195v2.208h-8.944V91.42h8.925v2.227h-6.176v3.18h5.278V98.98z"/>
	<path fill="#FFFFFF" d="M118.303,102.555h5.838v2.208h-8.587V91.42h2.749V102.555z"/>
	<path fill="#FFFFFF" d="M133.139,102.555h5.838v2.208h-8.586V91.42h2.748V102.555z"/>
	<path fill="#FFFFFF" d="M150.926,98.395c0,1.313-0.232,2.465-0.696,3.454s-1.128,1.753-1.993,2.291
		c-0.864,0.538-1.855,0.806-2.974,0.806c-1.105,0-2.093-0.266-2.96-0.797s-1.539-1.29-2.016-2.277
		c-0.477-0.986-0.719-2.121-0.725-3.404v-0.66c0-1.313,0.237-2.469,0.711-3.468c0.473-0.999,1.143-1.766,2.007-2.3
		c0.864-0.535,1.853-0.803,2.964-0.803c1.112,0,2.101,0.268,2.965,0.803c0.864,0.534,1.533,1.301,2.007,2.3s0.71,2.151,0.71,3.46
		V98.395z M148.141,97.789c0-1.398-0.251-2.462-0.752-3.189c-0.501-0.727-1.215-1.09-2.145-1.09c-0.922,0-1.634,0.359-2.135,1.076
		c-0.501,0.719-0.754,1.771-0.761,3.157v0.651c0,1.361,0.251,2.418,0.751,3.17c0.502,0.752,1.223,1.127,2.163,1.127
		c0.923,0,1.632-0.361,2.126-1.086c0.495-0.724,0.746-1.779,0.752-3.166V97.789z"/>
	<path fill="#FFFFFF" d="M163.398,100.318c-0.104,1.436-0.635,2.566-1.59,3.391c-0.957,0.824-2.217,1.236-3.781,1.236
		c-1.71,0-3.056-0.575-4.036-1.727c-0.98-1.152-1.471-2.732-1.471-4.742V97.66c0-1.282,0.226-2.412,0.679-3.391
		c0.451-0.977,1.098-1.727,1.938-2.249s1.816-0.784,2.928-0.784c1.539,0,2.779,0.413,3.721,1.238
		c0.941,0.824,1.484,1.982,1.631,3.473h-2.749c-0.067-0.861-0.307-1.486-0.72-1.874c-0.412-0.388-1.039-0.582-1.883-0.582
		c-0.916,0-1.602,0.329-2.057,0.985s-0.689,1.676-0.701,3.056v1.009c0,1.441,0.219,2.495,0.654,3.161
		c0.438,0.666,1.126,0.999,2.066,0.999c0.85,0,1.483-0.194,1.902-0.582c0.418-0.389,0.658-0.988,0.719-1.801H163.398z"/>
	<path fill="#FFFFFF" d="M172.736,102.014h-4.82l-0.917,2.749h-2.923l4.967-13.343h2.547l4.994,13.343h-2.923L172.736,102.014z
		 M168.658,99.787h3.335l-1.677-4.994L168.658,99.787z"/>
	<path fill="#FFFFFF" d="M180.58,102.555h5.838v2.208h-8.587V91.42h2.749V102.555z"/>
</g>
<g>
	<path fill="#FFFFFF" d="M106.312,120.104v2.989h-1.748v-8.485h3.31c0.637,0,1.197,0.117,1.682,0.35
		c0.483,0.233,0.855,0.564,1.115,0.994c0.261,0.43,0.391,0.918,0.391,1.466c0,0.831-0.284,1.486-0.854,1.967
		c-0.568,0.479-1.357,0.72-2.363,0.72H106.312z M106.312,118.688h1.562c0.463,0,0.814-0.109,1.059-0.327
		c0.242-0.217,0.363-0.528,0.363-0.932c0-0.416-0.122-0.752-0.367-1.009c-0.244-0.256-0.582-0.388-1.014-0.396h-1.603V118.688z"/>
	<path fill="#FFFFFF" d="M119.231,119.044c0,0.835-0.147,1.567-0.442,2.196c-0.296,0.63-0.719,1.115-1.268,1.457
		c-0.551,0.342-1.181,0.513-1.892,0.513c-0.703,0-1.331-0.169-1.882-0.507c-0.553-0.338-0.979-0.82-1.283-1.448
		c-0.303-0.627-0.456-1.349-0.46-2.165v-0.419c0-0.836,0.151-1.57,0.452-2.206c0.301-0.635,0.727-1.123,1.275-1.463
		c0.551-0.34,1.179-0.51,1.886-0.51s1.335,0.17,1.886,0.51c0.549,0.34,0.975,0.828,1.275,1.463c0.301,0.636,0.452,1.368,0.452,2.2
		V119.044z M117.459,118.659c0-0.89-0.158-1.565-0.477-2.028c-0.319-0.462-0.773-0.693-1.364-0.693c-0.587,0-1.04,0.229-1.358,0.685
		c-0.318,0.457-0.479,1.126-0.482,2.008v0.414c0,0.866,0.158,1.538,0.477,2.016c0.319,0.479,0.777,0.717,1.376,0.717
		c0.587,0,1.037-0.229,1.353-0.69c0.314-0.46,0.473-1.131,0.477-2.014V118.659z"/>
	<path fill="#FFFFFF" d="M120.502,123.094v-8.485h2.61c0.746,0,1.413,0.169,2.002,0.505s1.048,0.813,1.378,1.434
		c0.33,0.619,0.496,1.323,0.496,2.112v0.391c0,0.788-0.162,1.489-0.487,2.104c-0.324,0.613-0.782,1.09-1.372,1.428
		c-0.591,0.338-1.257,0.509-1.999,0.513H120.502z M122.25,116.025v5.664h0.846c0.684,0,1.205-0.224,1.566-0.67
		c0.361-0.447,0.547-1.086,0.555-1.918v-0.448c0-0.862-0.18-1.517-0.537-1.961c-0.357-0.445-0.879-0.667-1.567-0.667H122.25z"/>
	<path fill="#FFFFFF" d="M133.363,119.417h-3.357v2.272h3.939v1.404h-5.688v-8.485h5.676v1.417h-3.928v2.021h3.357V119.417z"/>
	<path fill="#FFFFFF" d="M139.371,120.867c0-0.33-0.116-0.583-0.35-0.76c-0.232-0.177-0.652-0.363-1.259-0.56
		s-1.086-0.39-1.439-0.58c-0.964-0.521-1.444-1.222-1.444-2.104c0-0.459,0.129-0.867,0.387-1.227s0.629-0.641,1.113-0.843
		c0.483-0.201,1.026-0.303,1.629-0.303c0.605,0,1.146,0.11,1.619,0.329c0.475,0.22,0.843,0.529,1.105,0.93
		c0.262,0.4,0.393,0.854,0.393,1.363h-1.748c0-0.388-0.122-0.69-0.367-0.906c-0.244-0.215-0.588-0.323-1.031-0.323
		c-0.428,0-0.76,0.091-0.996,0.271c-0.237,0.181-0.355,0.419-0.355,0.714c0,0.275,0.139,0.507,0.416,0.693s0.688,0.361,1.227,0.524
		c0.994,0.299,1.719,0.67,2.174,1.113c0.455,0.442,0.682,0.994,0.682,1.655c0,0.733-0.277,1.31-0.833,1.728
		s-1.304,0.626-2.243,0.626c-0.653,0-1.248-0.119-1.783-0.358c-0.537-0.238-0.945-0.565-1.227-0.981
		c-0.282-0.416-0.423-0.897-0.423-1.445h1.754c0,0.937,0.56,1.404,1.679,1.404c0.415,0,0.74-0.084,0.973-0.254
		C139.255,121.406,139.371,121.171,139.371,120.867z"/>
	<path fill="#FFFFFF" d="M148.416,120.99l1.923-6.382h1.946l-2.955,8.485h-1.823l-2.942-8.485h1.939L148.416,120.99z"/>
	<path fill="#FFFFFF" d="M158.188,119.417h-3.355v2.272h3.939v1.404h-5.688v-8.485h5.676v1.417h-3.928v2.021h3.355V119.417z"/>
	<path fill="#FFFFFF" d="M166.696,123.094h-1.748l-3.403-5.583v5.583h-1.748v-8.485h1.748l3.409,5.595v-5.595h1.742V123.094z"/>
	<path fill="#FFFFFF" d="M170.082,123.094h-1.748v-8.485h1.748V123.094z"/>
	<path fill="#FFFFFF" d="M174.844,119.987h-1.393v3.106h-1.748v-8.485h3.152c1.002,0,1.775,0.224,2.318,0.671
		c0.545,0.446,0.816,1.078,0.816,1.894c0,0.579-0.125,1.062-0.376,1.448s-0.63,0.694-1.14,0.924l1.836,3.467v0.082h-1.876
		L174.844,119.987z M173.451,118.571h1.41c0.438,0,0.778-0.111,1.02-0.335c0.24-0.224,0.361-0.531,0.361-0.924
		c0-0.399-0.113-0.715-0.341-0.943c-0.228-0.229-0.576-0.344-1.046-0.344h-1.404V118.571z"/>
	<path fill="#FFFFFF" d="M185.426,120.99l1.924-6.382h1.946l-2.954,8.485h-1.824l-2.943-8.485h1.941L185.426,120.99z"/>
	<path fill="#FFFFFF" d="M196.988,119.044c0,0.835-0.148,1.567-0.443,2.196c-0.295,0.63-0.717,1.115-1.268,1.457
		c-0.549,0.342-1.18,0.513-1.891,0.513c-0.703,0-1.33-0.169-1.883-0.507c-0.551-0.338-0.979-0.82-1.281-1.448
		c-0.303-0.627-0.457-1.349-0.461-2.165v-0.419c0-0.836,0.15-1.57,0.451-2.206c0.302-0.635,0.727-1.123,1.277-1.463
		c0.549-0.34,1.178-0.51,1.885-0.51s1.336,0.17,1.885,0.51c0.551,0.34,0.976,0.828,1.277,1.463c0.301,0.636,0.451,1.368,0.451,2.2
		V119.044z M195.217,118.659c0-0.89-0.16-1.565-0.479-2.028c-0.318-0.462-0.773-0.693-1.363-0.693c-0.587,0-1.039,0.229-1.357,0.685
		c-0.318,0.457-0.48,1.126-0.484,2.008v0.414c0,0.866,0.16,1.538,0.479,2.016c0.318,0.479,0.776,0.717,1.375,0.717
		c0.586,0,1.037-0.229,1.352-0.69c0.314-0.46,0.475-1.131,0.479-2.014V118.659z"/>
	<path fill="#FFFFFF" d="M202.658,120.867c0-0.33-0.116-0.583-0.35-0.76c-0.232-0.177-0.652-0.363-1.259-0.56
		s-1.086-0.39-1.439-0.58c-0.964-0.521-1.444-1.222-1.444-2.104c0-0.459,0.129-0.867,0.387-1.227s0.629-0.641,1.113-0.843
		c0.483-0.201,1.026-0.303,1.629-0.303c0.605,0,1.146,0.11,1.619,0.329c0.475,0.22,0.843,0.529,1.105,0.93
		c0.262,0.4,0.393,0.854,0.393,1.363h-1.748c0-0.388-0.122-0.69-0.367-0.906c-0.244-0.215-0.588-0.323-1.031-0.323
		c-0.428,0-0.76,0.091-0.996,0.271c-0.237,0.181-0.355,0.419-0.355,0.714c0,0.275,0.139,0.507,0.416,0.693s0.688,0.361,1.227,0.524
		c0.994,0.299,1.719,0.67,2.174,1.113c0.455,0.442,0.682,0.994,0.682,1.655c0,0.733-0.277,1.31-0.833,1.728
		s-1.304,0.626-2.243,0.626c-0.653,0-1.248-0.119-1.783-0.358c-0.537-0.238-0.945-0.565-1.227-0.981
		c-0.282-0.416-0.423-0.897-0.423-1.445h1.754c0,0.937,0.56,1.404,1.679,1.404c0.415,0,0.74-0.084,0.973-0.254
		C202.542,121.406,202.658,121.171,202.658,120.867z"/>
	<path fill="#FFFFFF" d="M111.533,133.366c0,0.835-0.148,1.567-0.443,2.196c-0.295,0.63-0.717,1.115-1.268,1.457
		c-0.549,0.342-1.18,0.513-1.891,0.513c-0.703,0-1.33-0.169-1.883-0.507c-0.551-0.338-0.979-0.82-1.281-1.448
		c-0.303-0.627-0.457-1.349-0.461-2.165v-0.419c0-0.836,0.15-1.57,0.451-2.206c0.302-0.635,0.727-1.123,1.277-1.463
		c0.549-0.34,1.178-0.51,1.885-0.51s1.336,0.17,1.885,0.51c0.551,0.34,0.976,0.828,1.277,1.463c0.301,0.636,0.451,1.368,0.451,2.2
		V133.366z M109.762,132.981c0-0.89-0.16-1.565-0.479-2.028c-0.318-0.462-0.773-0.693-1.363-0.693c-0.587,0-1.039,0.229-1.357,0.685
		c-0.318,0.457-0.48,1.126-0.484,2.008v0.414c0,0.866,0.16,1.538,0.479,2.016c0.318,0.479,0.776,0.717,1.375,0.717
		c0.586,0,1.037-0.229,1.352-0.69c0.314-0.46,0.475-1.131,0.479-2.014V132.981z"/>
	<path fill="#FFFFFF" d="M120.881,133.739h-3.357v2.272h3.939v1.404h-5.688v-8.485h5.676v1.417h-3.928v2.021h3.357V133.739z"/>
	<path fill="#FFFFFF" d="M129.389,137.416h-1.748l-3.403-5.583v5.583h-1.748v-8.485h1.748l3.409,5.595v-5.595h1.742V137.416z"/>
	<path fill="#FFFFFF" d="M134.051,135.313l1.923-6.382h1.946l-2.955,8.485h-1.823l-2.942-8.485h1.939L134.051,135.313z"/>
	<path fill="#FFFFFF" d="M140.578,137.416h-1.749v-8.485h1.749V137.416z"/>
	<path fill="#FFFFFF" d="M147.093,135.668h-3.065l-0.582,1.748h-1.859l3.158-8.485h1.62l3.177,8.485h-1.859L147.093,135.668z
		 M144.5,134.252h2.121l-1.066-3.177L144.5,134.252z"/>
	<path fill="#FFFFFF" d="M153.474,134.31h-1.393v3.106h-1.748v-8.485h3.152c1.003,0,1.775,0.224,2.319,0.671
		c0.544,0.446,0.816,1.078,0.816,1.894c0,0.579-0.125,1.062-0.377,1.448c-0.25,0.387-0.63,0.694-1.139,0.924l1.836,3.467v0.082
		h-1.877L153.474,134.31z M152.081,132.894h1.41c0.438,0,0.778-0.111,1.021-0.335c0.24-0.224,0.361-0.531,0.361-0.924
		c0-0.399-0.114-0.715-0.342-0.943c-0.227-0.229-0.576-0.344-1.046-0.344h-1.404V132.894z"/>
	<path fill="#FFFFFF" d="M165.712,135.668h-3.065l-0.582,1.748h-1.859l3.158-8.485h1.62l3.177,8.485h-1.859L165.712,135.668z
		 M163.119,134.252h2.121l-1.066-3.177L163.119,134.252z"/>
	<path fill="#FFFFFF" d="M176.715,135.668h-3.066l-0.582,1.748h-1.859l3.158-8.485h1.621l3.176,8.485h-1.859L176.715,135.668z
		 M174.121,134.252h2.121l-1.066-3.177L174.121,134.252z"/>
	<path fill="#FFFFFF" d="M181.703,136.012h3.711v1.404h-5.459v-8.485h1.748V136.012z"/>
	<path fill="#FFFFFF" d="M192.758,136.344c-0.314,0.377-0.76,0.669-1.335,0.877s-1.212,0.312-1.911,0.312
		c-0.734,0-1.379-0.16-1.932-0.48c-0.554-0.32-0.981-0.786-1.282-1.396c-0.302-0.61-0.456-1.327-0.464-2.15v-0.577
		c0-0.847,0.143-1.58,0.429-2.2c0.286-0.619,0.697-1.093,1.235-1.422c0.538-0.328,1.168-0.492,1.891-0.492
		c1.007,0,1.793,0.24,2.361,0.72c0.566,0.479,0.902,1.179,1.008,2.095h-1.702c-0.077-0.485-0.249-0.841-0.516-1.066
		c-0.267-0.225-0.632-0.338-1.099-0.338c-0.594,0-1.047,0.224-1.357,0.67c-0.311,0.447-0.469,1.111-0.473,1.993v0.542
		c0,0.89,0.17,1.563,0.508,2.017s0.833,0.682,1.486,0.682c0.656,0,1.124-0.14,1.404-0.419v-1.463h-1.592v-1.288h3.34V136.344z"/>
	<path fill="#FFFFFF" d="M200.596,128.931v5.589c0,0.929-0.291,1.663-0.871,2.203c-0.581,0.54-1.375,0.81-2.381,0.81
		c-0.99,0-1.777-0.262-2.36-0.786s-0.88-1.245-0.892-2.162v-5.653h1.748v5.601c0,0.556,0.133,0.961,0.399,1.215
		c0.267,0.255,0.634,0.382,1.104,0.382c0.982,0,1.482-0.517,1.498-1.55v-5.647H200.596z"/>
	<path fill="#FFFFFF" d="M203.889,137.416h-1.749v-8.485h1.749V137.416z"/>
	<path fill="#FFFFFF" d="M210.613,133.739h-3.357v2.272h3.939v1.404h-5.688v-8.485h5.676v1.417h-3.928v2.021h3.357V133.739z"/>
	<path fill="#FFFFFF" d="M219.121,137.416h-1.748l-3.403-5.583v5.583h-1.748v-8.485h1.748l3.409,5.595v-5.595h1.742V137.416z"/>
</g>
<g>
	<path fill="#FFFFFF" d="M61.775,68.842h6.472c3.081,0,5.364-0.771,6.85-2.313c1.485-1.539,2.228-3.585,2.228-6.135
		c0-2.465-0.735-4.384-2.207-5.757c-1.471-1.372-3.494-2.06-6.071-2.06c-2.325,0-4.272,0.639-5.841,1.912
		c-1.57,1.275-2.354,2.936-2.354,4.98H48.707c0-3.194,0.861-6.059,2.584-8.594s4.133-4.518,7.229-5.946
		c3.095-1.429,6.506-2.144,10.232-2.144c6.471,0,11.541,1.549,15.211,4.644c3.67,3.097,5.506,7.361,5.506,12.796
		c0,2.802-0.855,5.379-2.563,7.732c-1.71,2.354-3.95,4.16-6.724,5.42c3.445,1.234,6.016,3.082,7.711,5.547
		c1.695,2.467,2.543,5.379,2.543,8.741c0,5.436-1.982,9.791-5.947,13.069c-3.964,3.277-9.209,4.916-15.736,4.916
		c-6.107,0-11.102-1.61-14.981-4.832s-5.819-7.48-5.819-12.775h12.145c0,2.298,0.861,4.175,2.584,5.631
		c1.723,1.457,3.845,2.186,6.366,2.186c2.885,0,5.147-0.764,6.786-2.29s2.459-3.552,2.459-6.072c0-6.106-3.362-9.161-10.086-9.161
		h-6.43V68.842z"/>
</g>
<path fill="#FFFFFF" d="M255.861,44.591c4.871,0,8.855-3.986,8.855-8.858c0-4.871-3.984-8.857-8.855-8.857
	c-4.873,0-8.857,3.986-8.857,8.857C247.004,40.604,250.988,44.591,255.861,44.591z M239.475,59.649l-11.339,57.175
	c-0.575,2.702,1.552,5.27,4.34,5.27h0.355c2.082,0,3.853-1.413,4.34-3.45l7.175-31.979l9.304,8.855v22.149
	c0,2.436,1.988,4.424,4.424,4.424c2.438,0,4.432-1.988,4.432-4.424V92.686c0-2.435-0.975-4.735-2.747-6.42l-6.556-6.244
	l2.659-13.287c4.738,5.492,11.602,9.435,19.307,10.676c2.659,0.399,5.055-1.729,5.055-4.431c0-2.17-1.597-3.985-3.769-4.34
	c-6.731-1.108-12.313-5.095-15.279-10.32l-4.428-7.085c-2.483-3.942-7.441-5.536-11.737-3.721l-16.961,7.175
	c-3.278,1.417-5.404,4.606-5.404,8.194v10.496c0,2.435,1.992,4.431,4.43,4.431c2.436,0,4.428-1.996,4.428-4.431V62.748
	L239.475,59.649"/>
<g>
</g>
<g>
</g>
<g>
</g>
<g>
</g>
<g>
</g>
<g>
</g>
</svg>
