<?xml version="1.0" encoding="utf-8"?>
<!-- Generator: Adobe Illustrator 16.0.0, SVG Export Plug-In . SVG Version: 6.00 Build 0)  -->
<!DOCTYPE svg PUBLIC "-//W3C//DTD SVG 1.1//EN" "http://www.w3.org/Graphics/SVG/1.1/DTD/svg11.dtd">
<svg version="1.1" id="Capa_1" xmlns="http://www.w3.org/2000/svg" xmlns:xlink="http://www.w3.org/1999/xlink" x="0px" y="0px"
	 width="" height="auto" viewBox="0 0 312.968 156.484" enable-background="new 0 0 312.968 156.484"
	 xml:space="preserve">
<g>
	<path fill="#FFFFFF" d="M55.498,48.895h-1.9v-3.952h-3.706v3.952h-1.9v-9.223h1.9v3.737h3.706v-3.737h1.9V48.895z"/>
	<path fill="#FFFFFF" d="M62.478,46.994h-3.332l-0.633,1.9h-2.021l3.433-9.223h1.761l3.452,9.223h-2.021L62.478,46.994z
		 M59.659,45.455h2.306l-1.159-3.452L59.659,45.455z"/>
	<path fill="#FFFFFF" d="M73.106,45.822c-0.071,0.992-0.438,1.773-1.099,2.344c-0.661,0.57-1.532,0.855-2.613,0.855
		c-1.183,0-2.112-0.398-2.79-1.194s-1.017-1.889-1.017-3.278v-0.563c0-0.887,0.156-1.668,0.469-2.344
		c0.313-0.675,0.759-1.193,1.34-1.555c0.58-0.361,1.255-0.542,2.023-0.542c1.064,0,1.922,0.285,2.572,0.855
		c0.649,0.57,1.025,1.37,1.127,2.4h-1.9c-0.046-0.595-0.212-1.026-0.497-1.295s-0.719-0.402-1.302-0.402
		c-0.633,0-1.107,0.227-1.422,0.681s-0.477,1.158-0.484,2.112v0.697c0,0.996,0.15,1.725,0.453,2.186
		c0.302,0.46,0.777,0.69,1.428,0.69c0.587,0,1.025-0.135,1.314-0.402c0.289-0.269,0.455-0.684,0.497-1.245H73.106z"/>
	<path fill="#FFFFFF" d="M79.903,44.897h-3.648v2.471h4.281v1.526h-6.182v-9.223h6.169v1.539h-4.269v2.198h3.648V44.897z
		 M77.921,37.183h1.995l-1.755,1.964h-1.488L77.921,37.183z"/>
	<path fill="#FFFFFF" d="M91.444,41.211h-2.825v7.684h-1.9v-7.684h-2.787v-1.539h7.513V41.211z"/>
	<path fill="#FFFFFF" d="M99.508,39.672v6.074c0,1.01-0.316,1.808-0.947,2.395s-1.494,0.881-2.588,0.881
		c-1.076,0-1.932-0.285-2.564-0.855c-0.634-0.57-0.957-1.354-0.97-2.35v-6.145h1.9v6.087c0,0.604,0.145,1.045,0.434,1.321
		s0.689,0.415,1.2,0.415c1.068,0,1.611-0.562,1.628-1.686v-6.138H99.508z"/>
	<path fill="#FFFFFF" d="M49.892,61.212v3.249h-1.9v-9.223h3.599c0.692,0,1.302,0.127,1.827,0.38c0.525,0.254,0.93,0.613,1.213,1.08
		s0.425,0.998,0.425,1.593c0,0.904-0.31,1.617-0.929,2.139c-0.618,0.521-1.475,0.782-2.568,0.782H49.892z M49.892,59.672h1.698
		c0.502,0,0.886-0.118,1.149-0.354s0.396-0.574,0.396-1.014c0-0.451-0.133-0.816-0.398-1.096c-0.267-0.278-0.634-0.422-1.103-0.431
		h-1.742V59.672z"/>
	<path fill="#FFFFFF" d="M61.907,60.464h-3.648v2.471h4.282v1.526h-6.183v-9.223h6.17v1.539h-4.27v2.198h3.648V60.464z"/>
	<path fill="#FFFFFF" d="M63.656,64.461v-9.223h2.838c0.811,0,1.536,0.183,2.176,0.548s1.139,0.885,1.498,1.559
		c0.358,0.674,0.538,1.438,0.538,2.296v0.425c0,0.856-0.177,1.619-0.529,2.286s-0.85,1.185-1.491,1.552s-1.366,0.554-2.173,0.558
		H63.656z M65.557,56.777v6.157h0.918c0.743,0,1.312-0.243,1.704-0.729s0.594-1.181,0.602-2.084v-0.487
		c0-0.938-0.194-1.648-0.582-2.132c-0.389-0.483-0.957-0.726-1.704-0.726H65.557z"/>
	<path fill="#FFFFFF" d="M74.107,64.461h-1.9v-9.223h1.9V64.461z"/>
	<path fill="#FFFFFF" d="M75.868,64.461v-9.223h2.838c0.811,0,1.536,0.183,2.176,0.548s1.139,0.885,1.498,1.559
		c0.358,0.674,0.538,1.438,0.538,2.296v0.425c0,0.856-0.177,1.619-0.529,2.286s-0.85,1.185-1.491,1.552s-1.366,0.554-2.173,0.558
		H75.868z M77.769,56.777v6.157h0.918c0.743,0,1.312-0.243,1.704-0.729s0.594-1.181,0.602-2.084v-0.487
		c0-0.938-0.194-1.648-0.582-2.132c-0.389-0.483-0.957-0.726-1.704-0.726H77.769z"/>
	<path fill="#FFFFFF" d="M91.875,60.059c0,0.908-0.16,1.704-0.481,2.388c-0.321,0.685-0.78,1.212-1.378,1.584
		c-0.598,0.371-1.282,0.558-2.056,0.558c-0.764,0-1.446-0.184-2.046-0.552c-0.6-0.367-1.063-0.892-1.394-1.573
		c-0.329-0.683-0.496-1.467-0.5-2.354v-0.456c0-0.908,0.164-1.707,0.491-2.397s0.789-1.221,1.387-1.59s1.28-0.555,2.049-0.555
		s1.452,0.186,2.05,0.555s1.06,0.899,1.387,1.59s0.491,1.487,0.491,2.392V60.059z M89.949,59.641c0-0.967-0.173-1.702-0.52-2.204
		c-0.346-0.503-0.84-0.754-1.482-0.754c-0.637,0-1.129,0.248-1.476,0.744c-0.346,0.496-0.521,1.224-0.525,2.183v0.449
		c0,0.941,0.173,1.672,0.52,2.191c0.346,0.52,0.845,0.779,1.494,0.779c0.638,0,1.128-0.25,1.47-0.75
		c0.343-0.501,0.516-1.23,0.52-2.188V59.641z"/>
</g>
<g>
	<path fill="#FFFFFF" d="M137.726,103.928h-3.648v2.471h4.282v1.526h-6.183v-9.223h6.17v1.539h-4.27v2.198h3.648V103.928z"/>
	<path fill="#FFFFFF" d="M144.257,105.505c0-0.358-0.127-0.634-0.381-0.826c-0.253-0.192-0.709-0.395-1.368-0.608
		c-0.658-0.213-1.18-0.423-1.564-0.63c-1.047-0.566-1.57-1.328-1.57-2.287c0-0.498,0.14-0.942,0.421-1.333s0.685-0.695,1.21-0.915
		s1.115-0.33,1.771-0.33c0.658,0,1.245,0.12,1.761,0.358c0.515,0.238,0.915,0.575,1.2,1.01c0.285,0.436,0.428,0.93,0.428,1.482h-1.9
		c0-0.422-0.133-0.75-0.399-0.984c-0.266-0.234-0.64-0.352-1.121-0.352c-0.464,0-0.825,0.098-1.083,0.294s-0.386,0.455-0.386,0.776
		c0,0.3,0.15,0.551,0.452,0.754c0.302,0.202,0.747,0.393,1.334,0.569c1.081,0.325,1.868,0.729,2.362,1.21s0.741,1.081,0.741,1.799
		c0,0.799-0.302,1.425-0.906,1.878c-0.604,0.454-1.416,0.682-2.438,0.682c-0.709,0-1.355-0.13-1.938-0.39
		c-0.582-0.26-1.026-0.615-1.333-1.067s-0.459-0.976-0.459-1.571h1.906c0,1.018,0.608,1.526,1.824,1.526
		c0.452,0,0.805-0.092,1.058-0.275C144.13,106.091,144.257,105.835,144.257,105.505z"/>
	<path fill="#FFFFFF" d="M149.349,104.676v3.249h-1.9v-9.223h3.599c0.692,0,1.302,0.127,1.827,0.38
		c0.525,0.254,0.93,0.613,1.213,1.08s0.425,0.998,0.425,1.593c0,0.904-0.31,1.617-0.929,2.139c-0.618,0.521-1.475,0.782-2.568,0.782
		H149.349z M149.349,103.136h1.698c0.502,0,0.886-0.118,1.149-0.354s0.396-0.574,0.396-1.014c0-0.451-0.133-0.816-0.398-1.096
		c-0.267-0.278-0.634-0.422-1.103-0.431h-1.742V103.136z"/>
	<path fill="#FFFFFF" d="M161.365,103.928h-3.648v2.471h4.281v1.526h-6.182v-9.223h6.169v1.539h-4.269v2.198h3.648V103.928z"/>
	<path fill="#FFFFFF" d="M166.527,104.549h-1.514v3.376h-1.9v-9.223h3.427c1.09,0,1.93,0.243,2.521,0.729
		c0.592,0.485,0.888,1.172,0.888,2.059c0,0.629-0.137,1.154-0.409,1.574s-0.685,0.755-1.238,1.004l1.995,3.769v0.089h-2.039
		L166.527,104.549z M165.014,103.01h1.532c0.478,0,0.847-0.122,1.109-0.364c0.262-0.243,0.393-0.577,0.393-1.004
		c0-0.436-0.124-0.777-0.371-1.026s-0.626-0.374-1.137-0.374h-1.526V103.01z"/>
	<path fill="#FFFFFF" d="M176.599,106.024h-3.332l-0.633,1.9h-2.021l3.433-9.223h1.761l3.452,9.223h-2.021L176.599,106.024z
		 M173.78,104.485h2.306l-1.159-3.452L173.78,104.485z M175.319,96.232h1.995l-1.755,1.963h-1.488L175.319,96.232z"/>
	<path fill="#FFFFFF" d="M139.417,120.419c-0.071,0.992-0.438,1.773-1.099,2.344c-0.661,0.57-1.532,0.855-2.613,0.855
		c-1.183,0-2.112-0.398-2.79-1.194s-1.017-1.889-1.017-3.278v-0.563c0-0.887,0.156-1.668,0.469-2.344
		c0.313-0.675,0.759-1.193,1.34-1.555c0.58-0.361,1.255-0.542,2.023-0.542c1.064,0,1.922,0.285,2.572,0.855
		c0.649,0.57,1.025,1.37,1.127,2.4h-1.9c-0.046-0.595-0.212-1.026-0.497-1.295s-0.719-0.402-1.302-0.402
		c-0.633,0-1.107,0.227-1.422,0.681s-0.477,1.158-0.484,2.112v0.697c0,0.996,0.15,1.725,0.453,2.186
		c0.302,0.46,0.777,0.69,1.428,0.69c0.587,0,1.025-0.135,1.314-0.402c0.289-0.269,0.455-0.684,0.497-1.245H139.417z"/>
	<path fill="#FFFFFF" d="M148.24,119.089c0,0.908-0.16,1.704-0.481,2.388c-0.32,0.685-0.779,1.212-1.377,1.584
		c-0.598,0.371-1.283,0.558-2.056,0.558c-0.765,0-1.446-0.184-2.046-0.552c-0.6-0.367-1.064-0.892-1.394-1.573
		c-0.329-0.683-0.496-1.467-0.5-2.354v-0.456c0-0.908,0.163-1.707,0.49-2.397s0.79-1.221,1.388-1.59s1.28-0.555,2.049-0.555
		s1.451,0.186,2.049,0.555s1.061,0.899,1.388,1.59s0.49,1.487,0.49,2.392V119.089z M146.315,118.671c0-0.967-0.174-1.702-0.52-2.204
		c-0.347-0.503-0.841-0.754-1.482-0.754c-0.638,0-1.13,0.248-1.476,0.744c-0.347,0.496-0.521,1.224-0.526,2.183v0.449
		c0,0.941,0.174,1.672,0.52,2.191c0.347,0.52,0.845,0.779,1.495,0.779c0.638,0,1.128-0.25,1.47-0.75
		c0.342-0.501,0.515-1.23,0.52-2.188V118.671z"/>
	<path fill="#FFFFFF" d="M157.121,123.491h-1.9l-3.699-6.068v6.068h-1.9v-9.223h1.9l3.706,6.081v-6.081h1.894V123.491z"/>
	<path fill="#FFFFFF" d="M164.329,119.723h-3.648v3.769h-1.9v-9.223h6.005v1.539h-4.104v2.382h3.648V119.723z"/>
	<path fill="#FFFFFF" d="M167.908,123.491h-1.9v-9.223h1.9V123.491z"/>
	<path fill="#FFFFFF" d="M173.083,120.115h-1.514v3.376h-1.9v-9.223h3.427c1.09,0,1.93,0.243,2.521,0.729
		c0.592,0.485,0.888,1.172,0.888,2.059c0,0.629-0.137,1.154-0.409,1.574s-0.685,0.755-1.238,1.004l1.995,3.769v0.089h-2.039
		L173.083,120.115z M171.569,118.576h1.532c0.478,0,0.847-0.122,1.109-0.364c0.262-0.243,0.393-0.577,0.393-1.004
		c0-0.436-0.124-0.777-0.371-1.026s-0.626-0.374-1.137-0.374h-1.526V118.576z"/>
	<path fill="#FFFFFF" d="M180.431,114.269l2.369,6.689l2.356-6.689h2.495v9.223h-1.906v-2.521l0.19-4.353l-2.49,6.873h-1.305
		l-2.482-6.866l0.189,4.346v2.521h-1.9v-9.223H180.431z"/>
	<path fill="#FFFFFF" d="M194.632,121.591H191.3l-0.633,1.9h-2.021l3.433-9.223h1.761l3.452,9.223h-2.021L194.632,121.591z
		 M191.813,120.052h2.306l-1.159-3.452L191.813,120.052z"/>
	<path fill="#FFFFFF" d="M205.261,120.419c-0.071,0.992-0.438,1.773-1.099,2.344c-0.661,0.57-1.532,0.855-2.613,0.855
		c-1.183,0-2.112-0.398-2.79-1.194s-1.017-1.889-1.017-3.278v-0.563c0-0.887,0.156-1.668,0.469-2.344
		c0.313-0.675,0.759-1.193,1.34-1.555c0.58-0.361,1.255-0.542,2.023-0.542c1.064,0,1.922,0.285,2.572,0.855
		c0.649,0.57,1.025,1.37,1.127,2.4h-1.9c-0.046-0.595-0.212-1.026-0.497-1.295s-0.719-0.402-1.302-0.402
		c-0.633,0-1.107,0.227-1.422,0.681s-0.477,1.158-0.484,2.112v0.697c0,0.996,0.15,1.725,0.453,2.186
		c0.302,0.46,0.777,0.69,1.428,0.69c0.587,0,1.025-0.135,1.314-0.402c0.289-0.269,0.455-0.684,0.497-1.245H205.261z"/>
	<path fill="#FFFFFF" d="M208.529,123.491h-1.9v-9.223h1.9V123.491z"/>
	<path fill="#FFFFFF" d="M217.865,119.089c0,0.908-0.16,1.704-0.481,2.388c-0.32,0.685-0.779,1.212-1.377,1.584
		c-0.598,0.371-1.283,0.558-2.056,0.558c-0.765,0-1.446-0.184-2.046-0.552c-0.6-0.367-1.064-0.892-1.394-1.573
		c-0.329-0.683-0.496-1.467-0.5-2.354v-0.456c0-0.908,0.163-1.707,0.49-2.397s0.79-1.221,1.388-1.59s1.28-0.555,2.049-0.555
		s1.451,0.186,2.049,0.555s1.061,0.899,1.388,1.59s0.49,1.487,0.49,2.392V119.089z M215.94,118.671c0-0.967-0.174-1.702-0.52-2.204
		c-0.347-0.503-0.841-0.754-1.482-0.754c-0.638,0-1.13,0.248-1.476,0.744c-0.347,0.496-0.521,1.224-0.526,2.183v0.449
		c0,0.941,0.174,1.672,0.52,2.191c0.347,0.52,0.845,0.779,1.495,0.779c0.638,0,1.128-0.25,1.47-0.75
		c0.342-0.501,0.515-1.23,0.52-2.188V118.671z M214.306,111.799h1.995l-1.754,1.963h-1.489L214.306,111.799z"/>
	<path fill="#FFFFFF" d="M226.746,123.491h-1.9l-3.699-6.068v6.068h-1.9v-9.223h1.9l3.706,6.081v-6.081h1.894V123.491z"/>
</g>
<path fill="#FFFFFF" d="M112.904,126.992c-2.121,0.205-4.214-0.533-5.738-2.028c-1.988,0.424-4.132-0.135-5.778-1.49
	c-1.644-1.356-2.602-3.359-2.624-5.493c-1.702-1.106-2.827-3.019-3.031-5.142c-0.205-2.122,0.534-4.214,2.028-5.738
	c-0.421-1.984,0.135-4.133,1.491-5.779c1.357-1.645,3.354-2.604,5.492-2.622c1.105-1.7,3.02-2.828,5.141-3.033
	c2.123-0.203,4.215,0.535,5.738,2.028c1.992-0.419,4.133,0.135,5.779,1.492c1.644,1.354,2.602,3.357,2.623,5.492
	c1.703,1.105,2.828,3.018,3.032,5.141c0.204,2.122-0.534,4.214-2.028,5.739c0.422,1.984-0.137,4.132-1.492,5.778
	c-1.357,1.646-3.36,2.598-5.492,2.625C116.939,125.661,115.027,126.788,112.904,126.992z M107.024,122.39
	c0.732-0.069,1.44,0.18,1.976,0.7c0.971,0.95,2.303,1.422,3.653,1.293c1.351-0.131,2.567-0.849,3.339-1.968
	c0.467-0.674,1.201-1.066,2.025-1.076c1.361-0.018,2.633-0.623,3.496-1.671c0.861-1.046,1.217-2.414,0.972-3.752
	c-0.148-0.806,0.095-1.605,0.671-2.194c0.949-0.97,1.421-2.302,1.291-3.652c-0.131-1.349-0.848-2.568-1.965-3.337
	c-0.676-0.468-1.07-1.207-1.078-2.027c-0.016-1.359-0.622-2.633-1.67-3.496c-1.048-0.862-2.42-1.208-3.75-0.972
	c-0.809,0.152-1.607-0.097-2.194-0.67c-0.972-0.95-2.302-1.423-3.653-1.292c-1.352,0.13-2.568,0.848-3.34,1.967
	c-0.467,0.677-1.206,1.063-2.025,1.078c-1.367,0.013-2.633,0.622-3.495,1.67c-0.862,1.046-1.217,2.413-0.973,3.75
	c0.149,0.81-0.095,1.608-0.671,2.195c-0.949,0.971-1.421,2.302-1.291,3.653c0.131,1.349,0.848,2.566,1.965,3.337
	c0.676,0.467,1.07,1.206,1.078,2.026c0.016,1.359,0.623,2.635,1.671,3.496c1.048,0.862,2.426,1.208,3.749,0.972
	C106.878,122.407,106.951,122.397,107.024,122.39L107.024,122.39z M112.835,115.321l5.61-6.559c0.471-0.551,0.406-1.381-0.146-1.85
	c-0.55-0.47-1.378-0.406-1.849,0.145l-5.626,6.576c-0.461,0.562-1.284,0.641-1.883,0.149l-3.239-2.477
	c-0.572-0.438-1.396-0.33-1.838,0.247c-0.439,0.572-0.33,1.396,0.246,1.836l3.202,2.446c0.839,0.692,1.882,0.978,2.886,0.881
	c0.999-0.095,1.955-0.568,2.637-1.394L112.835,115.321z"/>
<g>
	<path fill="#FFFFFF" d="M231.26,46.509h-1.515v3.376h-1.9v-9.223h3.427c1.09,0,1.931,0.243,2.521,0.729s0.887,1.172,0.887,2.059
		c0,0.629-0.136,1.154-0.408,1.574s-0.686,0.755-1.238,1.004l1.995,3.769v0.089h-2.04L231.26,46.509z M229.745,44.97h1.533
		c0.478,0,0.847-0.122,1.108-0.364c0.262-0.243,0.393-0.577,0.393-1.004c0-0.436-0.123-0.777-0.37-1.026s-0.626-0.374-1.138-0.374
		h-1.526V44.97z"/>
	<path fill="#FFFFFF" d="M241.673,45.888h-3.648v2.471h4.281v1.526h-6.182v-9.223h6.169v1.539h-4.269v2.198h3.648V45.888z"/>
	<path fill="#FFFFFF" d="M250.489,42.201h-2.825v7.684h-1.899v-7.684h-2.787v-1.539h7.512V42.201z"/>
	<path fill="#FFFFFF" d="M253.594,49.885h-1.9v-9.223h1.9V49.885z"/>
	<path fill="#FFFFFF" d="M258.769,46.509h-1.514v3.376h-1.9v-9.223h3.427c1.09,0,1.93,0.243,2.521,0.729
		c0.592,0.485,0.888,1.172,0.888,2.059c0,0.629-0.137,1.154-0.409,1.574s-0.685,0.755-1.238,1.004l1.995,3.769v0.089h-2.039
		L258.769,46.509z M257.255,44.97h1.532c0.478,0,0.847-0.122,1.109-0.364c0.262-0.243,0.393-0.577,0.393-1.004
		c0-0.436-0.124-0.777-0.371-1.026s-0.626-0.374-1.137-0.374h-1.526V44.97z"/>
	<path fill="#FFFFFF" d="M268.84,47.984h-3.332l-0.633,1.9h-2.021l3.433-9.223h1.761l3.452,9.223h-2.021L268.84,47.984z
		 M266.021,46.445h2.306l-1.159-3.452L266.021,46.445z M267.561,38.192h1.995l-1.755,1.963h-1.488L267.561,38.192z"/>
	<path fill="#FFFFFF" d="M277.492,46.636v3.249h-1.9v-9.223h3.599c0.692,0,1.302,0.127,1.827,0.38
		c0.525,0.254,0.93,0.613,1.213,1.08s0.425,0.998,0.425,1.593c0,0.904-0.31,1.617-0.929,2.139c-0.618,0.521-1.475,0.782-2.568,0.782
		H277.492z M277.492,45.096h1.698c0.502,0,0.886-0.118,1.149-0.354s0.396-0.574,0.396-1.014c0-0.451-0.133-0.816-0.398-1.096
		c-0.267-0.278-0.634-0.422-1.103-0.431h-1.742V45.096z"/>
	<path fill="#FFFFFF" d="M291.535,45.482c0,0.908-0.16,1.704-0.481,2.388c-0.321,0.685-0.78,1.212-1.378,1.584
		c-0.598,0.371-1.282,0.558-2.056,0.558c-0.764,0-1.446-0.184-2.046-0.552c-0.6-0.367-1.063-0.892-1.394-1.573
		c-0.329-0.683-0.496-1.467-0.5-2.354v-0.456c0-0.908,0.164-1.707,0.491-2.397s0.789-1.221,1.387-1.59s1.28-0.555,2.049-0.555
		s1.452,0.186,2.05,0.555s1.06,0.899,1.387,1.59s0.491,1.487,0.491,2.392V45.482z M289.609,45.064c0-0.967-0.173-1.702-0.52-2.204
		c-0.346-0.503-0.84-0.754-1.482-0.754c-0.637,0-1.129,0.248-1.476,0.744c-0.346,0.496-0.521,1.224-0.525,2.183v0.449
		c0,0.941,0.173,1.672,0.52,2.191c0.346,0.52,0.845,0.779,1.494,0.779c0.638,0,1.128-0.25,1.47-0.75
		c0.343-0.501,0.516-1.23,0.52-2.188V45.064z"/>
	<path fill="#FFFFFF" d="M296.33,46.509h-1.514v3.376h-1.9v-9.223h3.427c1.09,0,1.93,0.243,2.521,0.729
		c0.592,0.485,0.888,1.172,0.888,2.059c0,0.629-0.137,1.154-0.409,1.574s-0.685,0.755-1.238,1.004l1.995,3.769v0.089h-2.039
		L296.33,46.509z M294.816,44.97h1.532c0.478,0,0.847-0.122,1.109-0.364c0.262-0.243,0.393-0.577,0.393-1.004
		c0-0.436-0.124-0.777-0.371-1.026s-0.626-0.374-1.137-0.374h-1.526V44.97z"/>
	<path fill="#FFFFFF" d="M233.394,61.454h-3.648v2.471h4.282v1.526h-6.183v-9.223h6.17v1.539h-4.27v2.198h3.648V61.454z"/>
	<path fill="#FFFFFF" d="M237.042,63.925h4.035v1.526h-5.936v-9.223h1.9V63.925z"/>
	<path fill="#FFFFFF" d="M247.297,63.925h4.035v1.526h-5.936v-9.223h1.9V63.925z"/>
	<path fill="#FFFFFF" d="M259.592,61.049c0,0.908-0.16,1.704-0.481,2.388c-0.32,0.685-0.779,1.212-1.377,1.584
		c-0.598,0.371-1.283,0.558-2.056,0.558c-0.765,0-1.446-0.184-2.046-0.552c-0.6-0.367-1.064-0.892-1.394-1.573
		c-0.329-0.683-0.496-1.467-0.5-2.354v-0.456c0-0.908,0.163-1.707,0.49-2.397s0.79-1.221,1.388-1.59s1.28-0.555,2.049-0.555
		s1.451,0.186,2.049,0.555s1.061,0.899,1.388,1.59s0.49,1.487,0.49,2.392V61.049z M257.667,60.631c0-0.967-0.174-1.702-0.52-2.204
		c-0.347-0.503-0.841-0.754-1.482-0.754c-0.638,0-1.13,0.248-1.476,0.744c-0.347,0.496-0.521,1.224-0.526,2.183v0.449
		c0,0.941,0.174,1.672,0.52,2.191c0.347,0.52,0.845,0.779,1.495,0.779c0.638,0,1.128-0.25,1.47-0.75
		c0.342-0.501,0.515-1.23,0.52-2.188V60.631z"/>
	<path fill="#FFFFFF" d="M268.213,62.379c-0.072,0.992-0.438,1.773-1.1,2.344c-0.66,0.57-1.531,0.855-2.612,0.855
		c-1.183,0-2.112-0.398-2.79-1.194s-1.017-1.889-1.017-3.278v-0.563c0-0.887,0.155-1.668,0.469-2.344
		c0.312-0.675,0.759-1.193,1.339-1.555c0.581-0.361,1.256-0.542,2.024-0.542c1.063,0,1.921,0.285,2.571,0.855s1.026,1.37,1.128,2.4
		h-1.9c-0.047-0.595-0.213-1.026-0.497-1.295c-0.285-0.269-0.72-0.402-1.302-0.402c-0.634,0-1.107,0.227-1.422,0.681
		c-0.315,0.454-0.477,1.158-0.485,2.112v0.697c0,0.996,0.151,1.725,0.453,2.186c0.302,0.46,0.778,0.69,1.429,0.69
		c0.587,0,1.024-0.135,1.314-0.402c0.289-0.269,0.455-0.684,0.497-1.245H268.213z"/>
	<path fill="#FFFFFF" d="M274.667,63.551h-3.332l-0.633,1.9h-2.021l3.433-9.223h1.761l3.452,9.223h-2.021L274.667,63.551z
		 M271.849,62.012h2.306l-1.159-3.452L271.849,62.012z"/>
	<path fill="#FFFFFF" d="M280.089,63.925h4.035v1.526h-5.936v-9.223h1.9V63.925z"/>
</g>
<g>
	<path fill="#FFFFFF" d="M253.21,79.47h1.504c0.717,0,1.247-0.179,1.592-0.537c0.346-0.358,0.518-0.833,0.518-1.426
		c0-0.573-0.171-1.019-0.513-1.338s-0.812-0.479-1.411-0.479c-0.54,0-0.992,0.148-1.357,0.444c-0.364,0.296-0.547,0.682-0.547,1.157
		h-2.822c0-0.742,0.2-1.408,0.601-1.997s0.961-1.05,1.68-1.382c0.72-0.332,1.513-0.498,2.378-0.498c1.504,0,2.683,0.359,3.535,1.079
		c0.854,0.72,1.279,1.711,1.279,2.974c0,0.651-0.198,1.25-0.596,1.797c-0.396,0.547-0.918,0.967-1.563,1.26
		c0.801,0.286,1.398,0.716,1.792,1.289c0.395,0.573,0.591,1.25,0.591,2.031c0,1.263-0.46,2.275-1.382,3.037
		c-0.921,0.762-2.14,1.143-3.657,1.143c-1.419,0-2.579-0.374-3.481-1.123c-0.901-0.749-1.353-1.738-1.353-2.969h2.822
		c0,0.534,0.2,0.97,0.601,1.309s0.894,0.508,1.479,0.508c0.671,0,1.196-0.178,1.577-0.532s0.571-0.825,0.571-1.411
		c0-1.419-0.781-2.129-2.344-2.129h-1.494V79.47z"/>
</g>
<g>
	<path fill="#FFFFFF" d="M47.985,87.829h-2.822V76.95l-3.369,1.045V75.7l5.889-2.109h0.303V87.829z"/>
</g>
<g>
	<path fill="#FFFFFF" d="M155.722,87.829h-9.746v-1.934l4.6-4.902c0.631-0.69,1.099-1.292,1.401-1.807s0.454-1.003,0.454-1.465
		c0-0.632-0.16-1.128-0.479-1.489c-0.319-0.361-0.775-0.542-1.367-0.542c-0.639,0-1.142,0.22-1.509,0.659
		c-0.368,0.439-0.552,1.018-0.552,1.733h-2.832c0-0.866,0.206-1.657,0.62-2.373c0.413-0.716,0.997-1.277,1.753-1.685
		c0.755-0.407,1.611-0.61,2.568-0.61c1.465,0,2.603,0.352,3.413,1.055s1.216,1.696,1.216,2.979c0,0.703-0.183,1.419-0.547,2.148
		c-0.365,0.729-0.99,1.579-1.875,2.549l-3.232,3.408h6.113V87.829z"/>
</g>
<path fill="#FFFFFF" d="M212.756,34.024c2.031,0,3.695-1.662,3.695-3.695s-1.664-3.696-3.695-3.696
	c-2.033,0-3.696,1.663-3.696,3.696S210.723,34.024,212.756,34.024z M205.918,40.311l-4.732,23.858
	c-0.24,1.128,0.648,2.199,1.811,2.199h0.148c0.869,0,1.607-0.59,1.812-1.439l2.993-13.345l3.883,3.695v9.243
	c0,1.016,0.83,1.846,1.846,1.846c1.02,0,1.85-0.83,1.85-1.846V54.097c0-1.016-0.406-1.976-1.146-2.68l-2.734-2.605l1.109-5.546
	c1.977,2.294,4.842,3.938,8.057,4.455c1.109,0.167,2.109-0.721,2.109-1.849c0-0.904-0.667-1.664-1.572-1.811
	c-2.81-0.462-5.139-2.127-6.377-4.307l-1.848-2.955c-1.036-1.646-3.105-2.312-4.897-1.554l-7.078,2.993
	c-1.368,0.592-2.255,1.923-2.255,3.42v4.379c0,1.018,0.83,1.85,1.848,1.85c1.017,0,1.848-0.832,1.848-1.85v-4.435L205.918,40.311"/>
<path fill="#FFFFFF" d="M42.73,43.957l-1.236,6.162c-0.658,3.271-3.552,5.645-6.879,5.645H18.569
	c0.591,1.656,2.148,2.807,3.974,2.807h13.252c0.772,0,1.404,0.631,1.404,1.405c0,0.771-0.632,1.402-1.404,1.402H22.543
	c-3.552,0-6.557-2.666-6.977-6.205l-1.938-16.425c-0.084-0.702-0.688-1.234-1.391-1.234h-1.712c-0.772,0-1.404-0.632-1.404-1.405
	c0-0.771,0.632-1.402,1.404-1.402h1.712c2.135,0,3.932,1.601,4.184,3.72l0.057,0.491h5.278c0.772,0,1.403,0.632,1.403,1.404
	c0,0.771-0.631,1.404-1.403,1.404h-4.942l1.32,11.23h16.48c1.994,0,3.735-1.418,4.129-3.385l1.235-6.162
	c0.083-0.407-0.028-0.842-0.296-1.166c-0.266-0.322-0.659-0.518-1.08-0.518h-5.615c-0.773,0-1.404-0.633-1.404-1.404
	c0-0.772,0.631-1.404,1.404-1.404h5.615c1.263,0,2.457,0.562,3.257,1.543C42.66,41.443,42.982,42.721,42.73,43.957z M18.949,62.782
	c-1.545,0-2.807,1.264-2.807,2.809c0,1.544,1.262,2.808,2.807,2.808c1.544,0,2.808-1.264,2.808-2.808
	C21.757,64.046,20.493,62.782,18.949,62.782z M32.988,62.782c-1.545,0-2.809,1.264-2.809,2.809c0,1.544,1.264,2.808,2.809,2.808
	c1.543,0,2.807-1.264,2.807-2.808C35.795,64.046,34.531,62.782,32.988,62.782z M22.137,44.883c-0.534,0.563-0.492,1.461,0.069,1.979
	l2.19,2.051c0.828,0.828,1.909,1.233,2.989,1.233c1.081,0,2.135-0.405,2.935-1.206l2.232-2.078c0.561-0.533,0.589-1.417,0.07-1.979
	c-0.534-0.56-1.418-0.604-1.98-0.07l-1.854,1.728V36.108c0-0.771-0.631-1.402-1.403-1.402c-0.771,0-1.403,0.631-1.403,1.402V46.54
	l-1.854-1.728c-0.561-0.533-1.459-0.489-1.979,0.07H22.137z"/>
<circle fill="#FFFFFF" cx="59.79" cy="80.394" r="3.772"/>
<circle fill="#FFFFFF" cx="74.776" cy="80.394" r="3.772"/>
<circle fill="#FFFFFF" cx="89.762" cy="80.394" r="3.772"/>
<circle fill="#FFFFFF" cx="104.749" cy="80.394" r="3.772"/>
<circle fill="#FFFFFF" cx="119.735" cy="80.394" r="3.772"/>
<circle fill="#FFFFFF" cx="134.721" cy="80.394" r="3.772"/>
<circle fill="#FFFFFF" cx="164.693" cy="80.394" r="3.771"/>
<circle fill="#FFFFFF" cx="179.68" cy="80.394" r="3.771"/>
<circle fill="#FFFFFF" cx="194.666" cy="80.394" r="3.771"/>
<circle fill="#FFFFFF" cx="209.652" cy="80.394" r="3.771"/>
<circle fill="#FFFFFF" cx="224.639" cy="80.394" r="3.771"/>
<circle fill="#FFFFFF" cx="239.625" cy="80.394" r="3.771"/>
<g>
</g>
<g>
</g>
<g>
</g>
<g>
</g>
<g>
</g>
<g>
</g>
</svg>
