<?xml version="1.0" encoding="utf-8"?>
<!-- Generator: Adobe Illustrator 16.0.0, SVG Export Plug-In . SVG Version: 6.00 Build 0)  -->
<!DOCTYPE svg PUBLIC "-//W3C//DTD SVG 1.1//EN" "http://www.w3.org/Graphics/SVG/1.1/DTD/svg11.dtd">
<svg version="1.1" id="Capa_1" xmlns="http://www.w3.org/2000/svg" xmlns:xlink="http://www.w3.org/1999/xlink" x="0px" y="0px"
	 width="" height="auto" viewBox="0 0 312.968 156.484" enable-background="new 0 0 312.968 156.484"
	 xml:space="preserve">
<circle fill="#FFFFFF" cx="33.261" cy="119.631" r="6.259"/>
<g>
	<path fill="#FFFFFF" d="M113.024,97.46h-5.278v3.574h6.195v2.208h-8.944V89.9h8.925v2.227h-6.176v3.18h5.278V97.46z"/>
	<path fill="#FFFFFF" d="M122.473,99.742c0-0.519-0.184-0.918-0.551-1.196c-0.366-0.278-1.025-0.571-1.979-0.88
		s-1.708-0.612-2.264-0.912c-1.516-0.819-2.273-1.921-2.273-3.308c0-0.721,0.203-1.364,0.61-1.929
		c0.405-0.565,0.989-1.006,1.75-1.324c0.761-0.317,1.614-0.477,2.562-0.477c0.953,0,1.802,0.173,2.547,0.518
		c0.746,0.345,1.324,0.832,1.736,1.461c0.413,0.629,0.619,1.344,0.619,2.145h-2.749c0-0.611-0.192-1.086-0.577-1.425
		c-0.385-0.339-0.926-0.508-1.622-0.508c-0.673,0-1.194,0.142-1.567,0.426c-0.373,0.284-0.559,0.659-0.559,1.123
		c0,0.434,0.219,0.797,0.655,1.091c0.437,0.293,1.079,0.568,1.929,0.825c1.564,0.47,2.703,1.054,3.418,1.75
		c0.715,0.697,1.072,1.564,1.072,2.603c0,1.155-0.437,2.061-1.311,2.717c-0.873,0.657-2.049,0.985-3.527,0.985
		c-1.027,0-1.961-0.188-2.805-0.563c-0.843-0.375-1.486-0.89-1.929-1.544c-0.443-0.654-0.665-1.411-0.665-2.273h2.759
		c0,1.473,0.88,2.208,2.64,2.208c0.653,0,1.163-0.133,1.529-0.398C122.289,100.589,122.473,100.218,122.473,99.742z"/>
	<path fill="#FFFFFF" d="M129.84,98.541v4.701h-2.749V89.9h5.205c1.002,0,1.883,0.183,2.644,0.55
		c0.761,0.366,1.346,0.887,1.755,1.562c0.409,0.675,0.614,1.443,0.614,2.305c0,1.308-0.447,2.338-1.343,3.093
		c-0.896,0.754-2.134,1.131-3.716,1.131H129.84z M129.84,96.314h2.456c0.727,0,1.281-0.171,1.663-0.513s0.572-0.831,0.572-1.466
		c0-0.654-0.191-1.182-0.576-1.585c-0.386-0.403-0.917-0.611-1.596-0.623h-2.52V96.314z"/>
	<path fill="#FFFFFF" d="M147.224,97.46h-5.278v3.574h6.195v2.208h-8.944V89.9h8.925v2.227h-6.176v3.18h5.278V97.46z"/>
	<path fill="#FFFFFF" d="M154.691,98.358h-2.189v4.884h-2.749V89.9h4.958c1.576,0,2.791,0.351,3.646,1.054s1.283,1.695,1.283,2.978
		c0,0.911-0.197,1.669-0.592,2.277c-0.394,0.608-0.99,1.092-1.791,1.453l2.887,5.452v0.128h-2.951L154.691,98.358z M152.502,96.131
		h2.218c0.69,0,1.225-0.175,1.604-0.527c0.379-0.351,0.568-0.835,0.568-1.452c0-0.629-0.179-1.124-0.536-1.485
		c-0.357-0.36-0.906-0.541-1.645-0.541h-2.209V96.131z"/>
	<path fill="#FFFFFF" d="M169.263,100.493h-4.82l-0.917,2.749h-2.923l4.967-13.342h2.548l4.994,13.342h-2.924L169.263,100.493z
		 M165.185,98.266h3.335l-1.676-4.994L165.185,98.266z M167.412,86.326h2.886l-2.538,2.841h-2.154L167.412,86.326z"/>
	<path fill="#FFFFFF" d="M115.471,121.319c-0.104,1.436-0.633,2.566-1.59,3.391c-0.955,0.825-2.216,1.237-3.779,1.237
		c-1.711,0-3.057-0.576-4.037-1.727c-0.98-1.152-1.471-2.732-1.471-4.742v-0.816c0-1.283,0.227-2.413,0.678-3.391
		c0.453-0.977,1.099-1.727,1.938-2.25s1.815-0.784,2.928-0.784c1.54,0,2.78,0.413,3.721,1.237s1.484,1.982,1.632,3.473h-2.75
		c-0.067-0.861-0.307-1.486-0.719-1.874c-0.412-0.388-1.041-0.582-1.884-0.582c-0.916,0-1.603,0.329-2.058,0.985
		s-0.688,1.675-0.701,3.056v1.008c0,1.442,0.219,2.496,0.656,3.162c0.437,0.666,1.125,0.999,2.066,0.999
		c0.849,0,1.482-0.194,1.901-0.582c0.418-0.388,0.658-0.988,0.72-1.801H115.471z"/>
	<path fill="#FFFFFF" d="M128.236,119.395c0,1.313-0.232,2.465-0.697,3.455c-0.464,0.99-1.128,1.753-1.992,2.291
		c-0.865,0.538-1.855,0.806-2.975,0.806c-1.105,0-2.092-0.266-2.959-0.797c-0.867-0.532-1.539-1.291-2.016-2.277
		s-0.719-2.122-0.725-3.404v-0.66c0-1.313,0.236-2.469,0.71-3.468s1.143-1.766,2.007-2.3c0.865-0.534,1.854-0.802,2.965-0.802
		s2.1,0.268,2.965,0.802c0.863,0.535,1.533,1.301,2.006,2.3c0.475,0.999,0.711,2.152,0.711,3.459V119.395z M125.45,118.79
		c0-1.399-0.251-2.462-0.751-3.189c-0.502-0.727-1.216-1.09-2.145-1.09c-0.923,0-1.635,0.359-2.135,1.077
		c-0.502,0.718-0.755,1.77-0.762,3.157v0.651c0,1.362,0.251,2.419,0.752,3.17s1.222,1.127,2.162,1.127
		c0.923,0,1.632-0.362,2.127-1.086c0.494-0.724,0.745-1.779,0.751-3.167V118.79z"/>
	<path fill="#FFFFFF" d="M141.084,125.763h-2.749l-5.352-8.779v8.779h-2.749v-13.342h2.749l5.36,8.797v-8.797h2.74V125.763z"/>
	<path fill="#FFFFFF" d="M151.512,120.311h-5.277v5.453h-2.75v-13.342h8.688v2.227h-5.938v3.446h5.277V120.311z"/>
	<path fill="#FFFFFF" d="M156.689,125.763h-2.749v-13.342h2.749V125.763z"/>
	<path fill="#FFFFFF" d="M164.177,120.879h-2.19v4.884h-2.748v-13.342h4.957c1.576,0,2.792,0.351,3.646,1.054
		c0.855,0.703,1.283,1.695,1.283,2.978c0,0.911-0.197,1.669-0.591,2.277s-0.991,1.092-1.792,1.453l2.887,5.452v0.128h-2.95
		L164.177,120.879z M161.986,118.652h2.219c0.689,0,1.225-0.175,1.604-0.527c0.379-0.351,0.568-0.835,0.568-1.452
		c0-0.629-0.18-1.124-0.537-1.485c-0.357-0.36-0.905-0.541-1.645-0.541h-2.209V118.652z"/>
	<path fill="#FFFFFF" d="M174.807,112.421l3.428,9.677l3.408-9.677h3.611v13.342h-2.758v-3.647l0.274-6.296l-3.602,9.943h-1.888
		l-3.592-9.934l0.274,6.287v3.647h-2.749v-13.342H174.807z"/>
	<path fill="#FFFFFF" d="M195.352,123.014h-4.82l-0.916,2.749h-2.924l4.967-13.342h2.549l4.994,13.342h-2.924L195.352,123.014z
		 M191.273,120.787h3.336l-1.677-4.994L191.273,120.787z"/>
	<path fill="#FFFFFF" d="M210.729,121.319c-0.104,1.436-0.633,2.566-1.59,3.391c-0.955,0.825-2.216,1.237-3.779,1.237
		c-1.711,0-3.057-0.576-4.037-1.727c-0.98-1.152-1.471-2.732-1.471-4.742v-0.816c0-1.283,0.227-2.413,0.678-3.391
		c0.453-0.977,1.099-1.727,1.938-2.25s1.815-0.784,2.928-0.784c1.54,0,2.78,0.413,3.721,1.237s1.484,1.982,1.632,3.473h-2.75
		c-0.067-0.861-0.307-1.486-0.719-1.874c-0.412-0.388-1.041-0.582-1.884-0.582c-0.916,0-1.603,0.329-2.058,0.985
		s-0.688,1.675-0.701,3.056v1.008c0,1.442,0.219,2.496,0.656,3.162c0.437,0.666,1.125,0.999,2.066,0.999
		c0.849,0,1.482-0.194,1.901-0.582c0.418-0.388,0.658-0.988,0.72-1.801H210.729z"/>
	<path fill="#FFFFFF" d="M215.457,125.763h-2.749v-13.342h2.749V125.763z"/>
	<path fill="#FFFFFF" d="M228.965,119.395c0,1.313-0.232,2.465-0.697,3.455c-0.464,0.99-1.128,1.753-1.992,2.291
		c-0.865,0.538-1.855,0.806-2.975,0.806c-1.105,0-2.092-0.266-2.959-0.797c-0.867-0.532-1.539-1.291-2.016-2.277
		s-0.719-2.122-0.725-3.404v-0.66c0-1.313,0.236-2.469,0.71-3.468s1.143-1.766,2.007-2.3c0.865-0.534,1.854-0.802,2.965-0.802
		s2.1,0.268,2.965,0.802c0.863,0.535,1.533,1.301,2.006,2.3c0.475,0.999,0.711,2.152,0.711,3.459V119.395z M226.179,118.79
		c0-1.399-0.251-2.462-0.751-3.189c-0.502-0.727-1.216-1.09-2.145-1.09c-0.923,0-1.635,0.359-2.135,1.077
		c-0.502,0.718-0.755,1.77-0.762,3.157v0.651c0,1.362,0.251,2.419,0.752,3.17s1.222,1.127,2.162,1.127
		c0.923,0,1.632-0.362,2.127-1.086c0.494-0.724,0.745-1.779,0.751-3.167V118.79z M223.814,108.847h2.887l-2.538,2.841h-2.153
		L223.814,108.847z"/>
	<path fill="#FFFFFF" d="M241.813,125.763h-2.749l-5.352-8.779v8.779h-2.749v-13.342h2.749l5.36,8.797v-8.797h2.74V125.763z"/>
</g>
<g>
	<path fill="#FFFFFF" d="M91.359,125.813H49.422v-8.32l19.792-21.095c2.717-2.969,4.728-5.561,6.03-7.774
		c1.303-2.213,1.953-4.314,1.953-6.303c0-2.717-0.686-4.854-2.059-6.409c-1.373-1.555-3.334-2.332-5.883-2.332
		c-2.746,0-4.91,0.945-6.492,2.836c-1.584,1.891-2.375,4.377-2.375,7.459H48.203c0-3.726,0.889-7.129,2.668-10.211
		c1.779-3.082,4.293-5.498,7.543-7.249c3.25-1.75,6.934-2.626,11.052-2.626c6.304,0,11.199,1.513,14.687,4.538
		c3.488,3.026,5.232,7.298,5.232,12.817c0,3.025-0.785,6.107-2.354,9.245c-1.569,3.138-4.259,6.794-8.068,10.968l-13.909,14.666
		h26.306V125.813z"/>
</g>
<path fill="#FFFFFF" d="M236.74,91.28c-5.167,0.498-10.262-1.301-13.973-4.937c-4.84,1.031-10.061-0.329-14.066-3.631
	c-4.005-3.302-6.335-8.177-6.391-13.375c-4.143-2.692-6.882-7.348-7.38-12.515s1.301-10.26,4.939-13.972
	c-1.026-4.831,0.329-10.061,3.632-14.068c3.301-4.006,8.166-6.345,13.371-6.389c2.691-4.14,7.348-6.882,12.514-7.38
	c5.167-0.498,10.262,1.301,13.973,4.936c4.848-1.022,10.061,0.329,14.066,3.631c4.005,3.302,6.335,8.178,6.391,13.375
	c4.144,2.692,6.883,7.348,7.38,12.515c0.499,5.167-1.301,10.261-4.938,13.973c1.026,4.831-0.33,10.061-3.632,14.067
	c-3.306,4.007-8.181,6.325-13.371,6.389C246.563,88.04,241.906,90.781,236.74,91.28z M222.423,80.075
	c1.784-0.172,3.51,0.435,4.81,1.704c2.365,2.315,5.605,3.462,8.895,3.146s6.252-2.062,8.131-4.787
	c1.135-1.646,2.926-2.595,4.93-2.624c3.314-0.041,6.41-1.516,8.512-4.067c2.099-2.546,2.963-5.875,2.365-9.132
	c-0.361-1.966,0.232-3.912,1.635-5.343c2.313-2.362,3.458-5.606,3.142-8.892c-0.317-3.285-2.062-6.251-4.783-8.127
	c-1.646-1.134-2.604-2.934-2.624-4.934c-0.037-3.31-1.517-6.413-4.066-8.511c-2.551-2.099-5.891-2.941-9.129-2.366
	c-1.971,0.37-3.916-0.235-5.344-1.631c-2.365-2.315-5.605-3.462-8.895-3.145c-3.289,0.317-6.252,2.062-8.131,4.786
	c-1.138,1.646-2.936,2.589-4.931,2.625c-3.329,0.032-6.409,1.516-8.511,4.066c-2.1,2.547-2.961,5.876-2.365,9.132
	c0.362,1.966-0.232,3.913-1.635,5.343c-2.312,2.363-3.459,5.606-3.142,8.893c0.317,3.286,2.062,6.25,4.784,8.128
	c1.645,1.134,2.604,2.934,2.623,4.934c0.037,3.309,1.517,6.412,4.066,8.511c2.551,2.099,5.906,2.942,9.129,2.366
	C222.068,80.115,222.246,80.092,222.423,80.075L222.423,80.075z M236.57,62.863l13.659-15.968c1.144-1.338,0.988-3.357-0.354-4.5
	c-1.338-1.145-3.354-0.989-4.501,0.35l-13.697,16.013c-1.122,1.362-3.128,1.555-4.583,0.362l-7.888-6.029
	c-1.392-1.069-3.401-0.804-4.475,0.598c-1.071,1.399-0.804,3.403,0.599,4.474l7.797,5.958c2.042,1.683,4.582,2.378,7.025,2.142
	c2.431-0.234,4.761-1.386,6.42-3.397L236.57,62.863z"/>
<g>
</g>
<g>
</g>
<g>
</g>
<g>
</g>
<g>
</g>
<g>
</g>
</svg>
