<?xml version="1.0" encoding="utf-8"?>
<!-- Generator: Adobe Illustrator 16.0.0, SVG Export Plug-In . SVG Version: 6.00 Build 0)  -->
<!DOCTYPE svg PUBLIC "-//W3C//DTD SVG 1.1//EN" "http://www.w3.org/Graphics/SVG/1.1/DTD/svg11.dtd">
<svg version="1.1" id="Capa_1" xmlns="http://www.w3.org/2000/svg" xmlns:xlink="http://www.w3.org/1999/xlink" x="0px" y="0px"
	 width="800px" height="800px" viewBox="0 0 800 800" enable-background="new 0 0 800 800" xml:space="preserve">
<circle fill="#519059" cx="399.5" cy="393.5" r="383"/>
<g>
	<path fill="#FFFFFF" d="M443.143,643.7c-0.018,0-0.037,0-0.055,0H254.035c-57.751,0-104.735-46.984-104.735-104.735v-290.93
		c0-57.751,46.984-104.735,104.735-104.735h290.93c57.75,0,104.734,46.984,104.734,104.735v203.606c0,0.067,0,0.136,0,0.203
		c-0.021,2.441-0.545,4.762-1.471,6.865c-0.902,2.058-2.217,3.969-3.939,5.611c-0.084,0.078-0.168,0.157-0.252,0.234
		l-189.02,174.479c-0.266,0.247-0.539,0.486-0.82,0.716c-1.391,1.142-2.912,2.033-4.506,2.68c-1.732,0.7-3.6,1.133-5.555,1.242
		c-0.006,0-0.014,0.001-0.018,0.001C443.793,643.691,443.469,643.7,443.143,643.7z M254.035,178.212
		c-38.501,0-69.823,31.322-69.823,69.823v290.93c0,38.501,31.322,69.823,69.823,69.823h171.648v-98.916
		c0-41.709,33.934-75.642,75.643-75.642h113.461V248.035c0-38.501-31.322-69.823-69.822-69.823H254.035z M501.326,469.143
		c-22.459,0-40.73,18.271-40.73,40.729v76.504l127.002-117.233H501.326z"/>
	<path fill="#FFFFFF" d="M515.873,294.583H283.128c-9.641,0-17.456-7.814-17.456-17.455s7.815-17.456,17.456-17.456h232.745
		c9.641,0,17.455,7.815,17.455,17.456S525.514,294.583,515.873,294.583z"/>
	<path fill="#FFFFFF" d="M399.501,410.956H283.128c-9.641,0-17.456-7.815-17.456-17.456s7.815-17.456,17.456-17.456h116.373
		c9.64,0,17.457,7.815,17.457,17.456S409.141,410.956,399.501,410.956z"/>
</g>
</svg>
