<?xml version="1.0" ?><!DOCTYPE svg  PUBLIC '-//W3C//DTD SVG 1.1//EN'  'http://www.w3.org/Graphics/SVG/1.1/DTD/svg11.dtd'><svg xmlns="http://www.w3.org/2000/svg" xmlns:xlink="http://www.w3.org/1999/xlink" version="1.1" id="Layer_1" width="512px" height="512px" viewBox="0 0 512 512" fill="green" enable-background="new 0 0 512 512" xml:space="preserve"><path d="M428.757,133.571c-0.018-3.229-1.279-6.399-3.654-8.774L317.468,17.161c-2.375-2.376-5.547-3.638-8.779-3.654  c-0.021,0-0.039-0.007-0.06-0.007H152.386c-38.13,0-69.15,31.021-69.15,69.15V429.35c0,38.13,31.021,69.15,69.15,69.15h207.229  c38.13,0,69.15-31.021,69.15-69.15V133.636C428.765,133.614,428.758,133.593,428.757,133.571z M321.129,56.178l64.958,64.958  h-64.958V56.178z M359.614,473.5H152.386c-24.345,0-44.15-19.806-44.15-44.15V82.65c0-24.345,19.806-44.15,44.15-44.15h143.743  v95.136c0,6.903,5.597,12.5,12.5,12.5h95.136V429.35C403.765,453.694,383.959,473.5,359.614,473.5z M361.369,202.712H150.631  c-6.903,0-12.5,5.597-12.5,12.5v189.212c0,6.903,5.597,12.5,12.5,12.5h210.738c6.903,0,12.5-5.597,12.5-12.5V215.212  C373.869,208.309,368.272,202.712,361.369,202.712z M163.131,290.782h45.246v38.071h-45.246V290.782z M233.377,290.782h115.492  v38.071H233.377V290.782z M348.869,265.782H233.377v-38.07h115.492V265.782z M208.377,227.712v38.07h-45.246v-38.07H208.377z   M163.131,353.854h45.246v38.07h-45.246V353.854z M233.377,391.924v-38.07h115.492v38.07H233.377z"/></svg>