<?xml version="1.0" encoding="utf-8"?>
<!-- Generator: Adobe Illustrator 16.0.0, SVG Export Plug-In . SVG Version: 6.00 Build 0)  -->
<!DOCTYPE svg PUBLIC "-//W3C//DTD SVG 1.1//EN" "http://www.w3.org/Graphics/SVG/1.1/DTD/svg11.dtd">
<svg version="1.1" id="Capa_1" xmlns="http://www.w3.org/2000/svg" xmlns:xlink="http://www.w3.org/1999/xlink" x="0px" y="0px"
	 width="800px" height="800px" viewBox="0 0 800 800" enable-background="new 0 0 800 800" xml:space="preserve">
<circle fill="#6F5900" cx="399.5" cy="399.5" r="389"/>
<g>
	<circle fill="#FFFFFF" cx="453.371" cy="186.046" r="12.537"/>
	<circle fill="#FFFFFF" cx="378.182" cy="186.046" r="12.537"/>
	<circle fill="#FFFFFF" cx="415.782" cy="160.983" r="12.537"/>
	<path fill="#FFFFFF" d="M511.502,437.273h-27.551c-11.608,0-22.542,2.885-32.194,7.894c4.821-22.498-1.437-46.909-18.883-64.354
		l-19.479-19.479c-4.323-4.323-11.31-4.323-15.633,0l-19.48,19.479c-17.423,17.424-23.692,41.801-18.905,64.266
		c-9.607-4.953-20.486-7.816-32.016-7.816h-27.54c-6.114,0-11.056,4.942-11.056,11.056v27.539c0,38.662,31.454,70.115,70.103,70.115
		h27.55c6.114,0,11.056-4.942,11.056-11.056v-27.54c0-3.007-0.253-5.947-0.619-8.866l0.917,0.918
		c2.156,2.155,4.987,3.239,7.818,3.239c2.829,0,5.66-1.084,7.816-3.239l1.104-1.105c-0.387,2.974-0.652,5.98-0.652,9.054v27.54
		c0,6.113,4.942,11.056,11.056,11.056h27.54c38.661,0,70.114-31.453,70.114-70.115v-27.539
		C522.557,442.215,517.616,437.273,511.502,437.273z M375.352,523.871h-16.495c-26.467,0-47.992-21.525-47.992-48.003v-16.484
		h16.484c26.478,0,48.003,21.525,48.003,48.004V523.871z M405.578,475.99l-11.664-11.664c-18.707-18.706-18.707-49.164,0-67.881
		l11.664-11.664l11.664,11.664c18.706,18.706,18.706,49.164,0,67.881L405.578,475.99z M500.447,475.868
		c0,26.478-21.525,48.003-48.004,48.003h-16.483v-16.483c0-26.479,21.525-48.004,47.992-48.004h16.495V475.868L500.447,475.868z"/>
	<path fill="#FFFFFF" d="M667.983,593.411l-31.089-31.088c-0.021-0.984-0.088-1.99-0.199-3.019l-29.894-246.418
		c13.433-3.405,22.951-13.012,22.951-24.753v-2.2c0-30.47-30.348-57.655-68.168-63.891
		c-12.239-21.26-69.353-111.197-166.211-122.883l-1.326-0.154l-1.327,0.154c-96.471,11.642-153.518,100.904-166.077,122.629
		c-38.728,5.604-70.158,33.145-70.158,64.145v2.2c0,13.576,12.669,24.3,29.462,25.858L161.99,559.957
		c-0.1,0.884-0.154,1.769-0.177,2.642l-30.79,30.813c-8.381,8.392-10.371,20.641-5.075,31.243
		c5.307,10.58,16.285,16.24,28.037,14.682l57.489-8.226c0.564,0.188,1.139,0.343,1.725,0.476
		c61.237,13.599,122.927,20.408,184.672,20.408c58.595,0,117.234-6.136,175.475-18.396l11.42-2.41
		c0.398-0.088,0.785-0.188,1.183-0.287l59.06,8.446c11.785,1.758,22.742-4.09,28.025-14.692
		C678.353,614.052,676.363,601.803,667.983,593.411z M394.047,121.282c71.773,9.331,120.639,69.85,140.528,99.412H253.486
		C273.309,191.132,322.065,130.625,394.047,121.282z M178.596,288.134v-2.2c0-19.944,27.251-43.128,62.387-43.128h304.272
		c35.134,0,62.387,23.194,62.387,43.128l0.021,2.023c-0.254,0.74-2.167,2.188-5.186,3.194l-92.546,13.599
		c-28.17,4.135-74.172,6.146-120.086,6.059c-45.914-0.089-91.75-2.267-119.61-6.512l-82.11-12.526l-0.022,0.222
		C182.444,291.461,178.949,289.018,178.596,288.134z M653.279,614.748c-0.608,1.194-2.034,3.073-5.13,2.687l-63.802-9.109
		l-2.166,0.574c-0.653,0.177-1.272,0.388-1.946,0.653l-11.432,2.409c-116.515,24.544-234.534,23.87-351.247-2.123
		c-0.652-0.231-1.294-0.463-1.968-0.662l-2.277-0.664l-62.441,8.933c-3.074,0.398-4.533-1.491-5.141-2.675
		c-0.597-1.194-1.26-3.516,0.929-5.728l37.279-37.279l-0.022-6.269c-0.011-1.017-0.056-2.033,0.078-3.228l23.869-245.113
		l59.059,8.999c3.715,0.564,7.728,1.095,11.985,1.604c0.099,0.011,0.21,0.022,0.309,0.033c4.168,0.486,8.568,0.929,13.179,1.349
		c0.088,0.011,0.177,0.011,0.254,0.022c28.248,2.542,64.078,3.813,99.81,3.813c0.077,0,0.144,0,0.221,0c0.42,0,0.84,0,1.26-0.011
		c5.24,0,10.459-0.033,15.667-0.089c0.63,0,1.261-0.021,1.891-0.032c5.063-0.067,10.094-0.145,15.068-0.266
		c0.74-0.022,1.471-0.045,2.212-0.066c4.831-0.122,9.617-0.255,14.316-0.432c1.006-0.033,1.968-0.088,2.963-0.121
		c4.378-0.166,8.734-0.343,12.957-0.563c1.371-0.067,2.653-0.155,3.991-0.232c3.78-0.211,7.563-0.421,11.188-0.664
		c1.735-0.11,3.327-0.254,5.019-0.375c3.096-0.232,6.235-0.454,9.188-0.708c2.321-0.199,4.455-0.442,6.667-0.663
		c2.134-0.21,4.366-0.409,6.39-0.631c4.146-0.464,8.06-0.973,11.708-1.503l71.762-10.536l29.816,245.776
		c0.134,1.095,0.078,2.156,0.066,3.229l-0.021,6.379l37.566,37.566C654.539,611.232,653.876,613.565,653.279,614.748z"/>
</g>
</svg>
