<?xml version="1.0" encoding="utf-8"?>
<!-- Generator: Adobe Illustrator 16.0.0, SVG Export Plug-In . SVG Version: 6.00 Build 0)  -->
<!DOCTYPE svg PUBLIC "-//W3C//DTD SVG 1.1//EN" "http://www.w3.org/Graphics/SVG/1.1/DTD/svg11.dtd">
<svg version="1.1" id="Capa_1" xmlns="http://www.w3.org/2000/svg" xmlns:xlink="http://www.w3.org/1999/xlink" x="0px" y="0px"
	 width="56.693px" height="56.693px" viewBox="-4.347 -4.347 56.693 56.693" enable-background="new -4.347 -4.347 56.693 56.693"
	 xml:space="preserve">
<path fill="#F7DD00" d="M47.275,39.811c1.56,2.7,0.284,4.909-2.834,4.909H3.56c-3.118,0-4.394-2.209-2.834-4.909L21.165,4.41
	c1.559-2.7,4.11-2.7,5.67,0L47.275,39.811z"/>
<g>
	<path fill="#FFFFFF" d="M20.653,37.222c0-1.983,1.384-3.405,3.366-3.405c1.984,0,3.292,1.422,3.331,3.405
		c0,1.943-1.311,3.403-3.331,3.403S20.653,39.165,20.653,37.222z M21.887,31.946L21.027,15h5.947l-0.822,16.946H21.887z"/>
</g>
</svg>
