<?xml version="1.0" encoding="utf-8"?>
<!-- Generator: Adobe Illustrator 16.0.0, SVG Export Plug-In . SVG Version: 6.00 Build 0)  -->
<!DOCTYPE svg PUBLIC "-//W3C//DTD SVG 1.1//EN" "http://www.w3.org/Graphics/SVG/1.1/DTD/svg11.dtd">
<svg version="1.1" id="Capa_1" xmlns="http://www.w3.org/2000/svg" xmlns:xlink="http://www.w3.org/1999/xlink" x="0px" y="0px"
	 width="56.693px" height="56.693px" viewBox="0 0 56.693 56.693" enable-background="new 0 0 56.693 56.693" xml:space="preserve">
<g>
	<path fill="#F7DD00" d="M55.597,46.383c1.825,3.16,0.332,5.747-3.318,5.747H4.414c-3.651,0-5.146-2.587-3.318-5.747l23.93-41.449
		c1.826-3.161,4.813-3.161,6.639,0L55.597,46.383z"/>
	<g>
		<path fill="#FFFFFF" d="M24.427,43.351c0-2.322,1.62-3.986,3.941-3.986c2.322,0,3.854,1.664,3.9,3.986
			c0,2.274-1.535,3.983-3.9,3.983C26.003,47.335,24.427,45.626,24.427,43.351z M25.872,37.174l-1.007-19.84h6.963l-0.963,19.84
			H25.872z"/>
	</g>
</g>
</svg>
